<?xml version="1.0" encoding="UTF-8"?>
<svg version="1.1" xmlns="http://www.w3.org/2000/svg" width="133" height="115">
<path d="M0 0 C1 1 1 1 1.18000793 4.43122864 C1.11112014 9.45426614 0.15464573 14.19889429 -0.88012695 19.1003418 C-1.18013611 20.56771286 -1.18013611 20.56771286 -1.48620605 22.06472778 C-2.14550988 25.27794586 -2.81642012 28.4886047 -3.48828125 31.69921875 C-3.95234434 33.94016374 -4.41597616 36.18119809 -4.87919617 38.4223175 C-5.84998631 43.10956273 -6.82665643 47.79553491 -7.80737305 52.48071289 C-9.06338168 58.48388407 -10.30365021 64.49018171 -11.53942585 70.4975462 C-12.49271235 75.12202501 -13.45481704 79.74463531 -14.41954613 84.36673927 C-14.88048111 86.58092205 -15.3385512 88.79570324 -15.79369545 91.0110836 C-16.43066766 94.10530298 -17.07959567 97.19677907 -17.73168945 100.2878418 C-17.91726913 101.20172165 -18.10284882 102.1156015 -18.29405212 103.05717468 C-19.24883316 107.51973243 -20.14522561 111.31314923 -23 115 C-25.22265625 115.6484375 -25.22265625 115.6484375 -28 115 C-30.66340227 113.43658054 -33.02853274 111.55124157 -35.4375 109.625 C-36.85856648 108.52759805 -38.28045801 107.43126376 -39.703125 106.3359375 C-40.41791016 105.7800293 -41.13269531 105.22412109 -41.86914062 104.65136719 C-45.11005707 102.13973121 -48.38290798 99.67708134 -51.6875 97.25 C-52.25073975 96.82025879 -52.81397949 96.39051758 -53.39428711 95.94775391 C-55.74707622 94.22817581 -57.68935264 93.06402656 -60.55859375 92.47265625 C-63.9820672 93.21212651 -65.75575625 94.8872186 -68.375 97.1875 C-69.81359375 98.41146484 -69.81359375 98.41146484 -71.28125 99.66015625 C-72.1784375 100.43230469 -73.075625 101.20445313 -74 102 C-79.90609081 106.92541528 -79.90609081 106.92541528 -83.75 107.1875 C-88.54981702 104.65426324 -89.73299143 98.11036371 -91.26171875 93.2109375 C-91.45723831 92.58522858 -91.65275787 91.95951965 -91.85420227 91.31484985 C-92.26254293 90.00301287 -92.66828962 88.69036584 -93.0715332 87.37695312 C-93.68870281 85.37109074 -94.31743993 83.3691072 -94.94726562 81.3671875 C-95.34444795 80.08615369 -95.74095602 78.80491059 -96.13671875 77.5234375 C-96.49467529 76.36763184 -96.85263184 75.21182617 -97.22143555 74.02099609 C-98 71 -98 71 -98 67 C-98.89138672 66.74585327 -98.89138672 66.74585327 -99.80078125 66.48657227 C-106.31829217 64.58542041 -112.65994959 62.36110792 -119 59.9375 C-119.93972656 59.58623047 -120.87945312 59.23496094 -121.84765625 58.87304688 C-122.74355469 58.53208984 -123.63945313 58.19113281 -124.5625 57.83984375 C-125.77099609 57.38146118 -125.77099609 57.38146118 -127.00390625 56.91381836 C-129 56 -129 56 -131 54 C-131.125 51.375 -131.125 51.375 -131 49 C-125.67344881 46.25070394 -120.36728409 43.86930551 -114.75390625 41.77734375 C-113.96624374 41.47954514 -113.17858124 41.18174652 -112.36705017 40.87492371 C-110.66105417 40.23022476 -108.9543703 39.5873437 -107.24707031 38.94610596 C-102.56867328 37.18840973 -97.8958712 35.41594946 -93.22265625 33.64453125 C-92.23717804 33.27128723 -91.25169983 32.89804321 -90.23635864 32.51348877 C-79.69237325 28.51460509 -69.17835477 24.43919369 -58.66711426 20.35516357 C-55.51790182 19.13195338 -52.36794246 17.91068575 -49.21777344 16.68994141 C-37.25445161 12.05391763 -37.25445161 12.05391763 -25.31411743 7.35913086 C-23.42410897 6.6106818 -21.53240839 5.86650992 -19.640625 5.12255859 C-17.51617601 4.28630615 -15.39473196 3.44235128 -13.27734375 2.58837891 C-8.72873626 0.80526612 -4.98013786 -0.61950019 0 0 Z M-29 24 C-29.49999512 24.31001953 -29.99999023 24.62003906 -30.51513672 24.93945312 C-32.96815534 26.46007013 -35.42153125 27.98010936 -37.875 29.5 C-38.80449463 30.07588867 -39.73398926 30.65177734 -40.69165039 31.24511719 C-47.14247382 35.23891469 -53.60367721 39.21542808 -60.07104492 43.18237305 C-64.42829372 45.85853086 -68.77802546 48.5467894 -73.12792969 51.23486328 C-75.65162541 52.78589355 -78.18588226 54.31688234 -80.7265625 55.83984375 C-82.00552042 56.62188567 -83.28419919 57.40438445 -84.5625 58.1875 C-85.61566406 58.82042969 -86.66882813 59.45335937 -87.75390625 60.10546875 C-90.52166572 62.44001369 -90.64890566 63.45477256 -91 67 C-90.51277832 69.73273412 -90.51277832 69.73273412 -89.56640625 72.51953125 C-89.24736328 73.54111328 -88.92832031 74.56269531 -88.59960938 75.61523438 C-88.25736328 76.67033203 -87.91511719 77.72542969 -87.5625 78.8125 C-87.05493164 80.42415039 -87.05493164 80.42415039 -86.53710938 82.06835938 C-85.70172351 84.71570895 -84.85573832 87.35917314 -84 90 C-83.34 90 -82.68 90 -82 90 C-81.86464844 88.9378125 -81.72929688 87.875625 -81.58984375 86.78125 C-80.30703132 77.91484486 -78.98960762 72.0477456 -72 66 C-71.10796875 65.1646875 -70.2159375 64.329375 -69.296875 63.46875 C-66.74602789 61.08041517 -64.15859926 58.73596871 -61.55859375 56.40136719 C-55.49397367 50.94852896 -49.49623916 45.42332787 -43.5703125 39.8203125 C-42.80420654 39.09610107 -42.03810059 38.37188965 -41.2487793 37.62573242 C-39.73005354 36.18785992 -38.21322827 34.74797689 -36.69848633 33.3059082 C-36.00263428 32.64679443 -35.30678223 31.98768066 -34.58984375 31.30859375 C-33.96972412 30.71876709 -33.34960449 30.12894043 -32.71069336 29.52124023 C-31 28 -31 28 -28 26 C-28.495 25.01 -28.495 25.01 -29 24 Z " fill="#FFFFFF" transform="translate(131,0)"/>
</svg>
