<?xml version="1.0" encoding="UTF-8"?>
<svg version="1.1" xmlns="http://www.w3.org/2000/svg" width="5455" height="921">
<path d="M0 0 C1.12556808 -0.00384115 2.25113617 -0.00768229 3.41081238 -0.01163983 C4.65802567 -0.01077335 5.90523895 -0.00990687 7.19024658 -0.00901413 C8.50737137 -0.01198525 9.82449615 -0.01495637 11.18153381 -0.01801753 C14.85109432 -0.02610804 18.52063529 -0.02787828 22.19020367 -0.028615 C26.144508 -0.03046253 30.09880213 -0.03800941 34.05310059 -0.04475021 C42.7161444 -0.05835909 51.3791836 -0.06436515 60.04223633 -0.06876087 C65.46413267 -0.07152481 70.88602723 -0.07576301 76.30792236 -0.08026505 C91.3475127 -0.09247204 106.3871016 -0.10276135 121.42669678 -0.10614014 C122.39044991 -0.1063597 123.35420304 -0.10657927 124.34716082 -0.10680549 C125.7961625 -0.10713291 125.7961625 -0.10713291 127.27443695 -0.10746694 C129.23172506 -0.10791039 131.18901316 -0.10835695 133.14630127 -0.10880661 C134.11717336 -0.10902804 135.08804544 -0.10924947 136.0883379 -0.10947761 C151.7401234 -0.11340629 167.39186179 -0.13079433 183.04362917 -0.15416613 C199.15105527 -0.17802136 215.25845793 -0.19034875 231.36590195 -0.19150805 C240.39343574 -0.1924181 249.42090852 -0.19799667 258.44842529 -0.21632767 C266.155656 -0.2319225 273.86280695 -0.23673829 281.57005048 -0.22858956 C285.48715198 -0.22474716 289.40409396 -0.22528638 293.32117462 -0.23964691 C309.21987987 -0.29443534 324.96234671 0.09122183 340.80450439 1.5130806 C341.4900345 1.57459316 342.17556461 1.63610572 342.88186836 1.69948229 C429.75243387 9.67355634 520.326396 40.21715733 578.03106689 108.97127151 C580.27804763 111.75030038 582.42767543 114.59256315 584.52764893 117.48396683 C585.73990189 119.15001225 586.97898302 120.79329492 588.22247314 122.43611526 C609.59246001 151.04875448 623.54041948 184.69576099 631.16387939 219.44392776 C631.38664551 220.4535054 631.60941162 221.46308304 631.83892822 222.50325394 C635.99131486 242.92915581 637.28310756 263.45498606 637.16387939 284.25642776 C637.15881882 285.98507568 637.15881882 285.98507568 637.15365601 287.74864578 C637.07589037 306.16160836 636.28360988 324.01753615 632.72637939 342.13142776 C632.35633789 344.01692337 632.35633789 344.01692337 631.9788208 345.9405098 C623.4323684 387.99073447 606.5322093 428.11832426 578.72637939 461.13142776 C578.28713135 461.65945999 577.8478833 462.18749222 577.39532471 462.73152542 C567.43707482 474.68884173 556.99058009 485.48010604 544.72637939 495.13142776 C543.63309294 496.01450521 542.54067909 496.89866382 541.44903564 497.78377151 C527.75040676 508.82099704 513.24673621 517.87748349 497.72637939 526.13142776 C496.77505127 526.6450386 496.77505127 526.6450386 495.80450439 527.16902542 C440.54681057 556.84937325 372.76595282 569.28791809 310.4728241 569.27859879 C309.10709407 569.28191006 307.741365 569.2856382 306.37563711 569.28974026 C302.66999169 569.2996218 298.96436244 569.30345415 295.25870574 569.30612957 C291.24449536 569.31007345 287.23029733 569.31964719 283.21609497 569.32834244 C273.55669454 569.34797375 263.89729327 569.35814752 254.23787794 569.36707023 C249.68157516 569.37146761 245.12527352 569.37682992 240.56897163 569.3820591 C225.41813746 569.39904391 210.26730397 569.41354317 195.11646175 569.42080784 C191.19777869 569.42271742 187.27909564 569.42463783 183.3604126 569.42659378 C181.89962879 569.42731939 181.89962879 569.42731939 180.40933419 569.42805966 C164.59394823 569.43638031 148.77863739 569.46176363 132.96328431 569.49417446 C116.70642055 569.527218 100.4495951 569.54525339 84.19269758 569.54845208 C75.07233054 569.55061766 65.95207369 569.55937563 56.83173943 569.58491325 C49.07606567 569.60658166 41.32052898 569.61468903 33.56482839 569.60494647 C29.60852803 569.60039306 25.65251078 569.60234893 21.69624901 569.62170792 C18.07509383 569.63927496 14.45442971 569.6383952 10.83326978 569.62281062 C8.90278802 569.61929463 6.97230148 569.63550762 5.04189056 569.6524151 C-5.66036926 569.57247054 -5.66036926 569.57247054 -10.27362061 565.13142776 C-11.93491305 562.35417295 -12.52400029 560.31121417 -12.52777094 557.08927357 C-12.53354665 556.28770862 -12.53932236 555.48614367 -12.5452731 554.66028887 C-12.54144831 553.78370464 -12.53762352 552.9071204 -12.53368282 552.00397301 C-12.53748849 551.06579619 -12.54129417 550.12761937 -12.54521516 549.16101295 C-12.55558345 545.99355429 -12.55161513 542.82627309 -12.54777527 539.65880203 C-12.55222482 537.37448477 -12.55753792 535.09016906 -12.56364399 532.80585563 C-12.57786817 526.50999301 -12.57948645 520.21417965 -12.57904708 513.91830325 C-12.57955567 507.83163364 -12.59132409 501.74498029 -12.60173838 495.65832126 C-12.62649387 480.89623347 -12.6352627 466.13415689 -12.64027487 451.37205119 C-12.64066664 450.22497434 -12.64066664 450.22497434 -12.64106631 449.05472422 C-12.64132659 448.28849811 -12.64158686 447.522272 -12.64185502 446.73282691 C-12.64493548 438.24745556 -12.65143952 429.76208733 -12.6580677 421.27671814 C-12.67771643 395.65644165 -12.69412061 370.03616853 -12.69694424 344.41588402 C-12.6970383 343.59619481 -12.69713236 342.7765056 -12.69722927 341.93197732 C-12.69760776 338.61002609 -12.69797175 335.28807485 -12.69833225 331.96612361 C-12.69860397 329.46572369 -12.69888065 326.96532378 -12.69915771 324.46492386 C-12.69924574 323.63869711 -12.69933376 322.81247035 -12.69942445 321.96120643 C-12.70233067 295.99366211 -12.72443284 270.02619218 -12.76068115 244.05867386 C-12.80138519 214.89828718 -12.82510263 185.7379512 -12.82540375 156.57753456 C-12.82550058 153.46961267 -12.8256673 150.3616908 -12.82588387 147.25376892 C-12.82592798 146.48849409 -12.82597209 145.72321927 -12.82601755 144.93475429 C-12.82713853 132.60653899 -12.84456365 120.27839807 -12.86770319 107.95020674 C-12.89051793 95.5655483 -12.89478895 83.18099063 -12.88015389 70.7963189 C-12.87270778 64.08371386 -12.87395048 57.37139885 -12.89656448 50.65880585 C-12.91705201 44.51879356 -12.91464988 38.37924 -12.89368964 32.23923324 C-12.89017513 30.01314703 -12.89518682 27.7870284 -12.90939408 25.56098475 C-12.92741691 22.54361507 -12.91486489 19.52788311 -12.89444637 16.5105648 C-12.90700975 15.6386629 -12.91957312 14.766761 -12.9325172 13.86843783 C-12.87102366 9.64685993 -12.55910533 6.95409893 -9.85981899 3.6077317 C-6.31015852 0.20890574 -4.78638816 0.00610545 0 0 Z M97.44520473 113.48386002 C94.37983143 118.53555923 95.18237656 124.79804834 95.22517395 130.49251175 C95.22127969 131.87110308 95.21563823 133.2496904 95.20840305 134.62826824 C95.19364817 138.4113973 95.20382958 142.19411013 95.21813977 145.97722578 C95.22924557 150.05909363 95.21730826 154.14090291 95.20829773 158.22276688 C95.19436057 166.21709496 95.20192494 174.21126515 95.21697331 182.20558572 C95.23382876 191.51402763 95.23062373 200.82243016 95.22687923 210.13088262 C95.22099978 226.73884366 95.23517556 243.34672889 95.25982666 259.95466995 C95.28374768 276.0725374 95.29083102 292.19030357 95.28033447 308.30818558 C95.26892668 325.85677679 95.26699349 343.40532114 95.28143257 360.95391178 C95.28295842 362.8249429 95.28447877 364.69597403 95.28599358 366.56700516 C95.28675139 367.48760379 95.2875092 368.40820242 95.28828998 369.35669798 C95.29303388 375.84613931 95.29118062 382.33555974 95.28692818 388.82500076 C95.28200287 396.73277607 95.28797981 404.64045559 95.30782247 412.54820895 C95.31769809 416.58337094 95.32279671 420.61838704 95.31492996 424.65355682 C95.30787636 428.3471866 95.31467006 432.04052192 95.33253359 435.73411286 C95.33849775 437.70376769 95.32974966 439.67345008 95.32048708 441.64309216 C95.22451296 449.88711616 95.22451296 449.88711616 98.72637939 457.13142776 C103.3323124 461.2013073 107.34815293 461.70359364 113.28091431 461.62590408 C114.55330662 461.63314733 114.55330662 461.63314733 115.85140383 461.6405369 C118.68813683 461.65178895 121.52396449 461.63450135 124.36065674 461.61726761 C126.39826705 461.61941436 128.43587615 461.62329338 130.47348022 461.62877274 C136.0124073 461.63847405 141.55101231 461.62313999 147.08990049 461.60286665 C152.91522551 461.58524953 158.74054122 461.58882205 164.56588745 461.58958817 C174.37643778 461.58771334 184.18686468 461.57034736 193.99737549 461.54304886 C205.25880211 461.51182394 216.52009252 461.50104484 227.78155935 461.50251997 C239.8432449 461.50388546 251.90487946 461.48989747 263.9665494 461.47162676 C267.39932616 461.46741191 270.8320944 461.46595085 274.2648735 461.46514893 C304.84487238 461.4513765 335.3417056 461.20083039 365.72637939 457.31892776 C366.39608765 457.23527969 367.0657959 457.15163162 367.75579834 457.06544876 C416.58155992 450.92620348 467.42693293 436.10008641 499.38653564 396.31892776 C527.96730107 357.38419557 534.6565889 303.63762043 528.12432861 256.72078323 C523.73554568 228.16407663 513.6993605 201.24238097 494.72637939 179.13142776 C494.25442139 178.58115921 493.78246338 178.03089066 493.29620361 177.4639473 C486.70634573 169.87832732 479.77031684 163.19447722 471.72637939 157.13142776 C470.72735596 156.35541214 469.72833252 155.57939651 468.69903564 154.77986526 C431.28588546 126.3833695 382.6213073 114.95534299 336.72637939 110.13142776 C335.84009228 110.03811991 334.95380516 109.94481205 334.04066086 109.84867668 C311.32504481 107.58210971 288.5599481 107.81897858 265.75793695 107.82984519 C261.2511477 107.83092767 256.74437216 107.82600115 252.2375859 107.82123977 C241.61795414 107.81023308 230.99835781 107.8096616 220.37872314 107.81575394 C209.43838052 107.82183311 198.49816521 107.80936336 187.55784428 107.78818387 C178.12204743 107.77059191 168.68629128 107.76456135 159.25047863 107.76782161 C153.63192749 107.76963306 148.01346796 107.76700882 142.39493179 107.75310707 C137.13331717 107.74056706 131.87190384 107.7424363 126.61029243 107.75551796 C124.68052541 107.75788886 122.75074433 107.75513074 120.82099342 107.74689484 C118.18994613 107.73647266 115.55958078 107.74449027 112.92855835 107.75720596 C112.16389539 107.74983168 111.39923243 107.74245739 110.61139786 107.73485965 C104.52371524 107.79687706 101.62191294 109.17668299 97.44520473 113.48386002 Z " fill="#6CCACB" transform="translate(1645.2736206054688,93.86857223510742)"/>
<path d="M0 0 C1.13143433 -0.00979385 2.26286865 -0.01958771 3.42858887 -0.02967834 C28.8350915 -0.20419981 53.71303233 0.07680123 78.80859375 4.23828125 C79.78783813 4.39810486 79.78783813 4.39810486 80.78686523 4.56115723 C142.97243227 14.75270188 203.51106291 37.27181415 254.80859375 74.23828125 C255.48937988 74.72828613 256.17016602 75.21829102 256.87158203 75.72314453 C264.77568957 81.44833162 272.31696255 87.33904399 279.44140625 94.01953125 C281.47790702 95.92833065 283.55396392 97.74810704 285.68359375 99.55078125 C294.4241366 107.17856505 302.52784229 115.49524143 309.71875 124.59765625 C311.06768612 126.30210638 312.4488269 127.98177781 313.8671875 129.62890625 C349.49396371 171.20437354 370.76562946 228.3746314 371.01171875 283.08984375 C371.01741882 284.10638031 371.0231189 285.12291687 371.0289917 286.17025757 C371.03838712 288.31661967 371.04495379 290.46299583 371.04882812 292.609375 C371.05842264 295.80626582 371.08945267 299.00248128 371.12109375 302.19921875 C371.45823133 367.89446954 346.4268825 433.72094448 301.23828125 481.66015625 C299.11611431 483.91197326 297.07403117 486.20391635 295.05859375 488.55078125 C289.45869819 494.98866593 283.33377503 500.75028156 276.80859375 506.23828125 C276.26589844 506.69477051 275.72320313 507.15125977 275.1640625 507.62158203 C242.73876056 534.76128202 206.43899071 554.66199857 166.80859375 569.23828125 C165.89577637 569.57698242 164.98295898 569.91568359 164.04248047 570.26464844 C131.05891115 582.35167729 95.67437867 588.89320304 60.80859375 592.23828125 C59.38244751 592.38185059 59.38244751 592.38185059 57.92749023 592.52832031 C46.41211517 593.5255391 34.86008808 593.46012713 23.30981445 593.47851562 C19.67440178 593.48814012 16.03957565 593.5192066 12.40429688 593.55078125 C-9.221967 593.64937191 -30.54491624 591.80365874 -51.75390625 587.48828125 C-53.04433838 587.23006592 -54.33477051 586.97185059 -55.66430664 586.70581055 C-124.83805858 572.63487341 -192.42651016 541.52324099 -245.19140625 494.23828125 C-245.6915625 493.79452148 -246.19171875 493.35076172 -246.70703125 492.89355469 C-259.09793496 481.88032382 -271.01418692 470.34947372 -281.19140625 457.23828125 C-282.06847752 456.14956086 -282.94748593 455.06239902 -283.828125 453.9765625 C-307.85763048 424.18352249 -325.18245453 389.60593764 -333.94140625 352.30078125 C-334.12807861 351.51695068 -334.31475098 350.73312012 -334.50708008 349.92553711 C-338.4959974 331.84375877 -339.71117386 313.83170192 -339.56640625 295.36328125 C-339.56208588 294.31278595 -339.5577655 293.26229065 -339.55331421 292.17996216 C-339.48021798 277.01040494 -339.09884952 262.16977527 -336.19140625 247.23828125 C-335.93399658 245.84609375 -335.93399658 245.84609375 -335.67138672 244.42578125 C-328.440069 205.96215026 -313.4846796 169.78247794 -290.19140625 138.23828125 C-289.47404297 137.26640869 -289.47404297 137.26640869 -288.7421875 136.27490234 C-274.71293511 117.47590062 -257.81302117 99.49459178 -239.19140625 85.23828125 C-238.26070312 84.490625 -237.33 83.74296875 -236.37109375 82.97265625 C-216.61789849 67.31155515 -194.85765043 54.08003119 -172.14648438 43.18115234 C-170.20050628 42.2426699 -168.26614137 41.28297629 -166.33203125 40.3203125 C-115.91644761 15.54724486 -56.27591099 0.40542664 0 0 Z M-149.19140625 156.23828125 C-149.87380371 156.72151855 -150.55620117 157.20475586 -151.25927734 157.70263672 C-159.89193489 163.87054108 -168.03605586 170.37620366 -175.66552734 177.76367188 C-176.72198147 178.78462914 -177.78530042 179.7985127 -178.85400391 180.80664062 C-207.82606001 208.15325575 -229.34857705 246.31155028 -231.31542969 286.79077148 C-232.59509283 331.69351935 -217.04048653 371.92893193 -186.43115234 404.7878418 C-185.02397546 406.27723079 -183.60861578 407.75844067 -182.19140625 409.23828125 C-181.71977051 409.73714844 -181.24813477 410.23601562 -180.76220703 410.75 C-134.17401348 459.84666723 -62.2228273 483.48785189 4.1824646 485.47134399 C77.52137443 487.21694851 153.1809747 466.54738917 207.53271484 415.35717773 C208.96336736 413.98979788 210.38624312 412.61429468 211.80859375 411.23828125 C212.55367187 410.53316406 213.29875 409.82804687 214.06640625 409.1015625 C243.44562572 380.70165035 262.22000593 340.51847806 263.09204102 299.60522461 C263.50704616 255.08110082 244.37088766 215.86053911 213.80859375 184.23828125 C212.9371875 183.3153125 212.06578125 182.39234375 211.16796875 181.44140625 C204.76345226 174.81216989 197.93522038 169.07605629 190.56738281 163.55712891 C189.43671552 162.70928539 188.31063527 161.85527094 187.19042969 160.99365234 C149.31989491 131.88141152 101.64483061 116.54723748 54.80859375 110.23828125 C53.92042969 110.1182373 53.03226563 109.99819336 52.1171875 109.87451172 C-16.15757796 101.13169347 -92.68977849 116.05338636 -149.19140625 156.23828125 Z " fill="#6CCACB" transform="translate(1139.19140625,81.76171875)"/>
<path d="M0 0 C1.13143433 -0.00979385 2.26286865 -0.01958771 3.42858887 -0.02967834 C28.8350915 -0.20419981 53.71303233 0.07680123 78.80859375 4.23828125 C79.78783813 4.39810486 79.78783813 4.39810486 80.78686523 4.56115723 C142.97243227 14.75270188 203.51106291 37.27181415 254.80859375 74.23828125 C255.48937988 74.72828613 256.17016602 75.21829102 256.87158203 75.72314453 C264.77568957 81.44833162 272.31696255 87.33904399 279.44140625 94.01953125 C281.47790702 95.92833065 283.55396392 97.74810704 285.68359375 99.55078125 C294.4241366 107.17856505 302.52784229 115.49524143 309.71875 124.59765625 C311.06768612 126.30210638 312.4488269 127.98177781 313.8671875 129.62890625 C349.49396371 171.20437354 370.76562946 228.3746314 371.01171875 283.08984375 C371.01741882 284.10638031 371.0231189 285.12291687 371.0289917 286.17025757 C371.03838712 288.31661967 371.04495379 290.46299583 371.04882812 292.609375 C371.05842264 295.80626582 371.08945267 299.00248128 371.12109375 302.19921875 C371.45823133 367.89446954 346.4268825 433.72094448 301.23828125 481.66015625 C299.11611431 483.91197326 297.07403117 486.20391635 295.05859375 488.55078125 C289.45869819 494.98866593 283.33377503 500.75028156 276.80859375 506.23828125 C276.26589844 506.69477051 275.72320313 507.15125977 275.1640625 507.62158203 C242.73876056 534.76128202 206.43899071 554.66199857 166.80859375 569.23828125 C165.89577637 569.57698242 164.98295898 569.91568359 164.04248047 570.26464844 C131.05891115 582.35167729 95.67437867 588.89320304 60.80859375 592.23828125 C59.38244751 592.38185059 59.38244751 592.38185059 57.92749023 592.52832031 C46.41211517 593.5255391 34.86008808 593.46012713 23.30981445 593.47851562 C19.67440178 593.48814012 16.03957565 593.5192066 12.40429688 593.55078125 C-9.221967 593.64937191 -30.54491624 591.80365874 -51.75390625 587.48828125 C-53.04433838 587.23006592 -54.33477051 586.97185059 -55.66430664 586.70581055 C-124.83805858 572.63487341 -192.42651016 541.52324099 -245.19140625 494.23828125 C-245.6915625 493.79452148 -246.19171875 493.35076172 -246.70703125 492.89355469 C-259.09793496 481.88032382 -271.01418692 470.34947372 -281.19140625 457.23828125 C-282.06847752 456.14956086 -282.94748593 455.06239902 -283.828125 453.9765625 C-307.85763048 424.18352249 -325.18245453 389.60593764 -333.94140625 352.30078125 C-334.12807861 351.51695068 -334.31475098 350.73312012 -334.50708008 349.92553711 C-338.4959974 331.84375877 -339.71117386 313.83170192 -339.56640625 295.36328125 C-339.56208588 294.31278595 -339.5577655 293.26229065 -339.55331421 292.17996216 C-339.48021798 277.01040494 -339.09884952 262.16977527 -336.19140625 247.23828125 C-335.93399658 245.84609375 -335.93399658 245.84609375 -335.67138672 244.42578125 C-328.440069 205.96215026 -313.4846796 169.78247794 -290.19140625 138.23828125 C-289.47404297 137.26640869 -289.47404297 137.26640869 -288.7421875 136.27490234 C-274.71293511 117.47590062 -257.81302117 99.49459178 -239.19140625 85.23828125 C-238.26070312 84.490625 -237.33 83.74296875 -236.37109375 82.97265625 C-216.61789849 67.31155515 -194.85765043 54.08003119 -172.14648438 43.18115234 C-170.20050628 42.2426699 -168.26614137 41.28297629 -166.33203125 40.3203125 C-115.91644761 15.54724486 -56.27591099 0.40542664 0 0 Z M-149.19140625 156.23828125 C-149.87380371 156.72151855 -150.55620117 157.20475586 -151.25927734 157.70263672 C-159.87081884 163.85545397 -168.0044685 170.34095249 -175.61376953 177.71191406 C-176.72587223 178.787876 -177.84469076 179.8569178 -178.96826172 180.92089844 C-208.57895403 208.99747781 -230.21087686 248.03255825 -231.39453125 289.56640625 C-232.01649569 336.19012035 -214.17178672 375.84458489 -182.19140625 409.23828125 C-181.71977051 409.73714844 -181.24813477 410.23601562 -180.76220703 410.75 C-134.17401348 459.84666723 -62.2228273 483.48785189 4.1824646 485.47134399 C77.52137443 487.21694851 153.1809747 466.54738917 207.53271484 415.35717773 C208.96336736 413.98979788 210.38624312 412.61429468 211.80859375 411.23828125 C212.55367187 410.53316406 213.29875 409.82804687 214.06640625 409.1015625 C243.44562572 380.70165035 262.22000593 340.51847806 263.09204102 299.60522461 C263.50704616 255.08110082 244.37088766 215.86053911 213.80859375 184.23828125 C212.9371875 183.3153125 212.06578125 182.39234375 211.16796875 181.44140625 C204.76345226 174.81216989 197.93522038 169.07605629 190.56738281 163.55712891 C189.43671552 162.70928539 188.31063527 161.85527094 187.19042969 160.99365234 C149.31989491 131.88141152 101.64483061 116.54723748 54.80859375 110.23828125 C53.92042969 110.1182373 53.03226563 109.99819336 52.1171875 109.87451172 C-16.15757796 101.13169347 -92.68977849 116.05338636 -149.19140625 156.23828125 Z " fill="#6CCACB" transform="translate(5031.19140625,81.76171875)"/>
<path d="M0 0 C0.82023148 -0.02949738 1.64046295 -0.05899475 2.48554993 -0.08938599 C5.20174437 -0.17843583 7.91707423 -0.23491191 10.63427734 -0.28369141 C12.03482424 -0.31188902 12.03482424 -0.31188902 13.46366501 -0.34065628 C18.41856454 -0.43584763 23.37304099 -0.50315515 28.32861328 -0.55078125 C32.40101113 -0.59495938 36.4666237 -0.69183828 40.53662109 -0.83789062 C77.93948911 -2.15172364 77.93948911 -2.15172364 87.91903687 6.93563843 C90.64228276 9.97202529 92.99703003 13.12092871 95.24017334 16.52410889 C97.41781705 19.53017971 100.01764748 21.71810838 102.86245728 24.07632446 C106.07154532 26.76856811 108.96870167 29.7593836 111.90771484 32.73974609 C112.86109741 33.69880859 112.86109741 33.69880859 113.83374023 34.67724609 C116.514295 37.37393093 119.18876148 40.0766234 121.86376953 42.77880859 C123.83462826 44.76790712 125.80860489 46.75387506 127.78271484 48.73974609 C128.3725415 49.33787109 128.96236816 49.93599609 129.57006836 50.55224609 C132.56483862 53.56424459 135.6170089 56.44873074 138.83154297 59.22607422 C142.77690272 62.63649407 146.46511264 66.24747392 150.12646484 69.95849609 C150.78424927 70.62006714 151.44203369 71.28163818 152.11975098 71.96325684 C154.89588043 74.75552753 157.66593022 77.55380026 160.43652344 80.3515625 C162.47688564 82.41015508 164.52035816 84.46562512 166.56396484 86.52099609 C167.17566528 87.14099487 167.78736572 87.76099365 168.41760254 88.39978027 C171.46790547 91.46703967 174.57140856 94.41113796 177.84521484 97.23974609 C181.7865178 100.6450794 185.46960449 104.2520267 189.12646484 107.95849609 C189.78424927 108.62006714 190.44203369 109.28163818 191.11975098 109.96325684 C193.89588043 112.75552753 196.66593022 115.55380026 199.43652344 118.3515625 C201.47688564 120.41015508 203.52035816 122.46562512 205.56396484 124.52099609 C206.17566528 125.14099487 206.78736572 125.76099365 207.41760254 126.39978027 C211.10500882 130.10768465 214.92572555 133.58317512 218.88195801 137.00134277 C222.02350696 139.78308738 224.96245753 142.75305161 227.90771484 145.73974609 C228.86109741 146.69880859 228.86109741 146.69880859 229.83374023 147.67724609 C232.514295 150.37393093 235.18876148 153.0766234 237.86376953 155.77880859 C239.83462826 157.76790712 241.80860489 159.75387506 243.78271484 161.73974609 C244.3725415 162.33787109 244.96236816 162.93599609 245.57006836 163.55224609 C248.56483862 166.56424459 251.6170089 169.44873074 254.83154297 172.22607422 C258.77690272 175.63649407 262.46511264 179.24747392 266.12646484 182.95849609 C266.78424927 183.62006714 267.44203369 184.28163818 268.11975098 184.96325684 C270.89588043 187.75552753 273.66593022 190.55380026 276.43652344 193.3515625 C278.47688564 195.41015508 280.52035816 197.46562512 282.56396484 199.52099609 C283.17566528 200.14099487 283.78736572 200.76099365 284.41760254 201.39978027 C287.46790547 204.46703967 290.57140856 207.41113796 293.84521484 210.23974609 C297.7865178 213.6450794 301.46960449 217.2520267 305.12646484 220.95849609 C305.78424927 221.62006714 306.44203369 222.28163818 307.11975098 222.96325684 C309.89588043 225.75552753 312.66593022 228.55380026 315.43652344 231.3515625 C317.47688564 233.41015508 319.52035816 235.46562512 321.56396484 237.52099609 C322.17566528 238.14099487 322.78736572 238.76099365 323.41760254 239.39978027 C327.10500882 243.10768465 330.92572555 246.58317512 334.88195801 250.00134277 C338.02350696 252.78308738 340.96245753 255.75305161 343.90771484 258.73974609 C344.54330322 259.37912109 345.1788916 260.01849609 345.83374023 260.67724609 C348.514295 263.37393093 351.18876148 266.0766234 353.86376953 268.77880859 C355.83462826 270.76790712 357.80860489 272.75387506 359.78271484 274.73974609 C360.66745483 275.63693359 360.66745483 275.63693359 361.57006836 276.55224609 C364.56483862 279.56424459 367.6170089 282.44873074 370.83154297 285.22607422 C374.77690272 288.63649407 378.46511264 292.24747392 382.12646484 295.95849609 C383.11314148 296.95085266 383.11314148 296.95085266 384.11975098 297.96325684 C386.89588043 300.75552753 389.66593022 303.55380026 392.43652344 306.3515625 C394.47688564 308.41015508 396.52035816 310.46562512 398.56396484 312.52099609 C399.17566528 313.14099487 399.78736572 313.76099365 400.41760254 314.39978027 C403.46790547 317.46703967 406.57140856 320.41113796 409.84521484 323.23974609 C413.7865178 326.6450794 417.46960449 330.2520267 421.12646484 333.95849609 C422.11314148 334.95085266 422.11314148 334.95085266 423.11975098 335.96325684 C425.89588043 338.75552753 428.66593022 341.55380026 431.43652344 344.3515625 C433.47688564 346.41015508 435.52035816 348.46562512 437.56396484 350.52099609 C438.17566528 351.14099487 438.78736572 351.76099365 439.41760254 352.39978027 C442.47355053 355.47271611 445.58323874 358.42081017 448.86376953 361.25390625 C452.70834936 364.57539585 456.28336729 368.09668942 459.82958984 371.73193359 C461.10665095 373.02648331 462.38400292 374.32074615 463.66162109 375.61474609 C465.64196771 377.62621315 467.619844 379.63994718 469.59277344 381.65869141 C471.51918699 383.62732382 473.45483691 385.58647503 475.39208984 387.54443359 C475.98068787 388.15165253 476.56928589 388.75887146 477.17572021 389.38449097 C477.73019836 389.9424234 478.28467651 390.50035583 478.85595703 391.07519531 C479.33812683 391.56704315 479.82029663 392.05889099 480.31707764 392.56564331 C482.11831508 393.94957526 483.64973619 394.24794447 485.84521484 394.73974609 C485.84369596 393.91603681 485.84217708 393.09232752 485.84061217 392.24365735 C485.75116469 343.46009786 485.68250144 294.67654704 485.64095353 245.892922 C485.6359505 240.03977989 485.63077323 234.18663795 485.62548828 228.33349609 C485.62443904 227.16820557 485.6233898 226.00291506 485.62230876 224.8023127 C485.60488768 205.9162654 485.57334064 187.03026663 485.53660366 168.14424816 C485.49924158 148.77581933 485.47698902 129.40741598 485.46886086 110.03895259 C485.46336326 98.08063861 485.44597888 86.1224618 485.41354898 74.16419002 C485.39245949 65.97195567 485.38600214 57.77979258 485.39120933 49.58753303 C485.39377981 44.8559207 485.38974763 40.12454863 485.36839294 35.39297867 C485.3490022 31.06511871 485.34789581 26.73766176 485.36161926 22.40978369 C485.36331667 20.84040124 485.35817912 19.27099416 485.34568211 17.70166054 C485.3297244 15.5748456 485.33822 13.44950232 485.35302353 11.32271194 C485.35150465 10.1395034 485.34998577 8.95629485 485.34842086 7.73723149 C485.94733119 4.12361089 486.98314077 2.95115739 489.84521484 0.73974609 C491.88796997 0.23358822 491.88796997 0.23358822 494.09570312 0.2250824 C495.35740326 0.20599571 495.35740326 0.20599571 496.64459229 0.18652344 C497.55900085 0.19304932 498.47340942 0.1995752 499.41552734 0.20629883 C500.86980133 0.19337547 500.86980133 0.19337547 502.35345459 0.18019104 C505.55931262 0.15748164 508.76430012 0.16427889 511.97021484 0.17333984 C514.19694276 0.16810671 516.42366845 0.16183137 518.65039062 0.15455627 C523.31765167 0.14414302 527.984608 0.14872735 532.65185547 0.16333008 C538.63785747 0.18052422 544.62290021 0.15701891 550.60879517 0.12184048 C555.20701478 0.09989891 559.80500369 0.10130007 564.40325928 0.10960579 C566.61050468 0.11042698 568.81776675 0.10353166 571.02496338 0.08883476 C574.10887955 0.07144806 577.19105673 0.08588292 580.27490234 0.10864258 C581.18931091 0.09695038 582.10371948 0.08525818 583.0458374 0.07321167 C583.88697083 0.08586563 584.72810425 0.09851959 585.59472656 0.11155701 C586.68755447 0.11243647 586.68755447 0.11243647 587.80245972 0.1133337 C590.96982002 1.08460712 592.02621525 3.039541 593.84521484 5.73974609 C594.34842086 8.50930119 594.34842086 8.50930119 594.35302353 11.58985901 C594.36447104 12.76865371 594.37591855 13.94744842 594.38771296 15.16196418 C594.37995262 16.45421668 594.37219228 17.74646919 594.36419678 19.07788086 C594.37007492 20.46935148 594.37770385 21.86081562 594.38692999 23.25226808 C594.40723937 27.08328239 594.4026231 30.91392721 594.39402348 34.74497086 C594.3890721 38.88986137 594.40715734 43.03465934 594.42240524 47.17951584 C594.44579176 54.40255339 594.4544192 61.62549051 594.45326233 68.84856415 C594.45160116 79.44070379 594.47239654 90.03271097 594.49816298 100.62481508 C594.54257796 119.17314038 594.5649006 137.72143974 594.57748628 156.269811 C594.58842321 172.26611316 594.60707345 188.26238311 594.63366699 204.25866699 C594.63540766 205.31039908 594.63714832 206.36213117 594.63894174 207.44573393 C594.6459912 211.6928344 594.65309183 215.93993478 594.66026329 220.18703504 C594.72356994 257.67971117 594.76816318 295.17237964 594.80095476 332.66509372 C594.82956036 365.18436955 594.88848097 397.70343344 594.97393489 430.22260618 C595.01208508 444.89132046 595.03952975 459.56005399 595.06340408 474.22879791 C595.06671006 476.24058535 595.07002994 478.25237277 595.07336426 480.26416016 C595.07497991 481.24183271 595.07659557 482.21950526 595.07826018 483.22680426 C595.09014694 490.03224481 595.10865845 496.8376488 595.12976074 503.64306641 C595.1544872 511.66441993 595.16921594 519.68570628 595.16935444 527.70709968 C595.16965272 531.61817854 595.17440263 535.52909268 595.19276428 539.44013214 C595.21185466 543.51960357 595.20817295 547.59871214 595.20166016 551.67822266 C595.21087872 552.84869141 595.22009727 554.01916016 595.22959518 555.22509766 C595.22402225 556.28811096 595.21844933 557.35112427 595.21270752 558.4463501 C595.21417408 559.35622807 595.21564064 560.26610603 595.21715164 561.20355606 C594.76153997 564.31031449 593.66617643 566.20310957 591.84521484 568.73974609 C588.84834236 570.23818234 585.69521524 570.14180768 582.39916992 570.34521484 C581.62888584 570.39443368 580.85860176 570.44365252 580.06497574 570.49436283 C569.93658163 571.11145894 559.80134742 571.48953244 549.65771484 571.73974609 C548.6881636 571.76386189 547.71861237 571.78797768 546.71968079 571.81282425 C504.74142189 572.72496503 504.74142189 572.72496503 491.34651184 561.07241821 C485.68139629 555.45978145 481.09417555 548.99016621 477.00341797 542.16894531 C474.84856238 538.60799324 472.39895592 536.1751274 469.12353516 533.61303711 C465.94855365 531.0024892 463.10943028 528.09710503 460.22021484 525.17724609 C459.62412415 524.57759537 459.02803345 523.97794464 458.41387939 523.36012268 C455.92981699 520.85892981 453.45120118 518.35236732 450.97216797 515.84619141 C443.13070204 507.80770198 443.13070204 507.80770198 434.84521484 500.23974609 C427.79534064 494.25485288 421.47010583 487.41527457 414.97216797 480.84619141 C407.14750702 472.82195686 407.14750702 472.82195686 398.87646484 465.27099609 C391.61160872 459.10359696 385.09685413 452.04146539 378.39941406 445.2734375 C369.4489132 436.1985377 369.4489132 436.1985377 359.99169922 427.66357422 C353.70775684 422.03146936 347.90449195 415.84346784 341.97216797 409.84619141 C334.13070204 401.80770198 334.13070204 401.80770198 325.84521484 394.23974609 C318.79534064 388.25485288 312.47010583 381.41527457 305.97216797 374.84619141 C298.13070204 366.80770198 298.13070204 366.80770198 289.84521484 359.23974609 C282.79534064 353.25485288 276.47010583 346.41527457 269.97216797 339.84619141 C262.14750702 331.82195686 262.14750702 331.82195686 253.87646484 324.27099609 C246.61160872 318.10359696 240.09685413 311.04146539 233.39941406 304.2734375 C224.4489132 295.1985377 224.4489132 295.1985377 214.99169922 286.66357422 C208.70775684 281.03146936 202.90449195 274.84346784 196.97216797 268.84619141 C189.13070204 260.80770198 189.13070204 260.80770198 180.84521484 253.23974609 C173.79534064 247.25485288 167.47010583 240.41527457 160.97216797 233.84619141 C153.14750702 225.82195686 153.14750702 225.82195686 144.87646484 218.27099609 C137.61160872 212.10359696 131.09685413 205.04146539 124.39941406 198.2734375 C115.16175952 188.86432686 115.16175952 188.86432686 105.36621094 180.0480957 C103.80751413 178.70731621 102.39275812 177.2855666 100.97021484 175.80224609 C99.09957785 173.50758763 99.09957785 173.50758763 96.84521484 173.73974609 C96.84499748 174.56519163 96.84478011 175.39063716 96.84455615 176.2410962 C96.83104852 225.1333368 96.79160773 274.02549762 96.71835922 322.91768713 C96.70959218 328.78456133 96.70104242 334.65143583 96.69262695 340.51831055 C96.69094789 341.68632937 96.68926883 342.85434819 96.68753888 344.05776153 C96.66084872 362.98514436 96.65177236 381.91249692 96.64917342 400.83989664 C96.64611699 420.25244627 96.6242063 439.66490815 96.58469027 459.07741815 C96.56089221 471.06182401 96.55190687 483.04605487 96.56170174 495.03048114 C96.567006 503.24193062 96.55404283 511.45322287 96.52655194 519.66462757 C96.51122118 524.40650966 96.50410062 529.14804001 96.51861763 533.88993263 C96.53172245 538.22845587 96.52196786 542.56629592 96.49377712 546.9047418 C96.4876425 548.47681593 96.4900072 550.04895017 96.50158558 551.62099364 C96.51607159 553.75419561 96.49995932 555.88504796 96.47607136 558.01811504 C96.47436262 559.79691493 96.47436262 559.79691493 96.47261935 561.61165017 C95.66009637 565.66270462 94.0001679 567.16340404 90.84521484 569.73974609 C88.69502926 570.36615849 88.69502926 570.36615849 86.51243591 570.36793518 C85.26129501 570.38691612 85.26129501 570.38691612 83.98487854 570.40628052 C83.08341599 570.39458832 82.18195343 570.38289612 81.25317383 570.37084961 C80.29326538 570.37800491 79.33335693 570.38516022 78.34436035 570.39253235 C75.17619015 570.40942057 72.00943455 570.39001682 68.84130859 570.36865234 C66.63843163 570.36948096 64.43555472 570.37194005 62.23268127 570.3759613 C57.61839158 570.37881931 53.00458729 570.36411602 48.39038086 570.33666992 C42.47286913 570.30256763 36.55622429 570.30861224 30.63867092 570.3273325 C26.09105693 570.33789491 21.54364507 570.3289718 16.99604988 570.31394768 C14.81394106 570.30876121 12.63181118 570.30925328 10.44970512 570.31549263 C7.40196107 570.32093631 4.35546341 570.30059686 1.30786133 570.27319336 C-0.04736885 570.28298218 -0.04736885 570.28298218 -1.42997742 570.29296875 C-2.26125153 570.28024429 -3.09252563 570.26751984 -3.94898987 570.25440979 C-4.66886865 570.25160287 -5.38874743 570.24879595 -6.13044071 570.24590397 C-9.22691917 569.47167458 -10.23620656 568.303989 -12.15478516 565.73974609 C-12.75890312 562.66430411 -12.6910984 559.62308551 -12.65814972 556.49738312 C-12.66396348 555.54678849 -12.66977725 554.59619386 -12.67576718 553.61679333 C-12.69045445 550.40691429 -12.67644103 547.19778949 -12.66271973 543.98791504 C-12.66732518 541.67329658 -12.67367568 539.35868105 -12.6816287 537.04407167 C-12.69663361 531.33431231 -12.69292003 525.62477565 -12.68142564 519.9150131 C-12.66869432 513.07775744 -12.6791154 506.24058759 -12.69027329 499.40333621 C-12.71136136 486.00646165 -12.70950074 472.60966327 -12.69795764 459.21278141 C-12.68790553 447.48914122 -12.68526388 435.76552899 -12.69004822 424.04188538 C-12.69035376 423.26500029 -12.6906593 422.4881152 -12.6909741 421.68768815 C-12.6922194 418.53426091 -12.69349299 415.38083369 -12.69481315 412.22740649 C-12.70705619 382.63039814 -12.69594417 353.0334384 -12.67442556 323.43643755 C-12.65544236 297.12654431 -12.65714083 270.8167285 -12.67626953 244.50683594 C-12.69767621 214.96484739 -12.70618801 185.42290181 -12.69382048 155.88090658 C-12.69253756 152.73314 -12.6912862 149.58537341 -12.69004822 146.43760681 C-12.68973191 145.66251509 -12.6894156 144.88742336 -12.6890897 144.08884401 C-12.68453491 132.37099024 -12.68987003 120.65316747 -12.69996643 108.93531799 C-12.71138616 95.6149942 -12.70858123 82.29475869 -12.68684345 68.97444594 C-12.67611096 62.17302941 -12.67174807 55.37175649 -12.68544006 48.57034111 C-12.69730586 42.35152611 -12.69089767 36.13301552 -12.66952986 29.91422838 C-12.66503905 27.65722883 -12.66738504 25.40020388 -12.67703301 23.14322048 C-12.68909299 20.08914442 -12.67682787 17.03612855 -12.65814972 13.98210907 C-12.66751438 13.09372272 -12.67687905 12.20533637 -12.68652749 11.29002923 C-12.61373111 5.38646133 -12.61373111 5.38646133 -10.35224676 2.1997323 C-7.07111536 0.01975947 -3.81764294 0.06882815 0 0 Z " fill="#6CCACB" transform="translate(3332.15478515625,93.26025390625)"/>
<path d="M0 0 C0.84817291 -0.00990463 1.69634583 -0.01980927 2.57022095 -0.03001404 C3.49757553 -0.02551239 4.42493011 -0.02101074 5.38038635 -0.01637268 C6.35950989 -0.02323593 7.33863342 -0.03009918 8.34742737 -0.03717041 C11.59106356 -0.05550437 14.83421912 -0.0515914 18.07789612 -0.0459137 C20.32847248 -0.05047239 22.57904744 -0.05577703 24.82962036 -0.0617981 C29.54988759 -0.07074223 34.26998575 -0.06829128 38.99024963 -0.05836487 C45.04452607 -0.04687494 51.0982193 -0.06708089 57.15241909 -0.09628201 C61.80122598 -0.114613 66.44989232 -0.11435769 71.09872627 -0.10864449 C73.33108908 -0.10849088 75.56346118 -0.1145671 77.79578972 -0.12693596 C80.91550838 -0.14178489 84.03413963 -0.13121317 87.15382385 -0.11402893 C88.07915421 -0.1236969 89.00448456 -0.13336487 89.95785522 -0.14332581 C90.80884796 -0.13349167 91.6598407 -0.12365753 92.53662109 -0.11352539 C93.2738462 -0.11331611 94.0110713 -0.11310682 94.77063656 -0.1128912 C97.91849923 0.65159342 98.97427437 1.72833251 100.83180237 4.38768005 C101.2236181 7.47000601 101.37040839 10.1943947 101.33732605 13.27648926 C101.34646123 14.6382637 101.34646123 14.6382637 101.35578096 16.02754873 C101.37142473 19.07631806 101.35857501 22.12430671 101.34596252 25.17308044 C101.35142115 27.35597224 101.35866129 29.53886021 101.36755371 31.72174072 C101.38291107 36.42535981 101.38568448 41.12876071 101.37878799 45.83239937 C101.36802561 53.26452327 101.38535431 60.69641802 101.40660095 68.12850952 C101.43688395 79.87937118 101.44856588 91.63016982 101.45217741 103.38106674 C101.45873048 124.43500395 101.48774043 145.48889789 101.53727376 166.54277986 C101.55381056 173.93644192 101.55918097 181.33000565 101.55568337 188.72368443 C101.55524748 193.31594245 101.56279371 197.90816309 101.57235909 202.50041008 C101.57505019 204.63579025 101.57427614 206.7711779 101.56984901 208.90655518 C101.5642381 211.81308455 101.5707206 214.71934128 101.58024597 217.62585449 C101.57325115 218.90433977 101.57325115 218.90433977 101.56611502 220.20865303 C101.59127714 224.11895989 101.61281157 226.05919386 103.83180237 229.38768005 C107.18324602 230.70581613 110.63576417 230.51521649 114.19777584 230.51910782 C116.17495709 230.52486954 116.17495709 230.52486954 118.19208139 230.53074765 C119.65857189 230.5299674 121.12506234 230.52908862 122.59155273 230.52812195 C124.14649198 230.53070543 125.70143056 230.53371855 127.25636822 230.53712535 C131.53607441 230.54520025 135.81576384 230.54698519 140.09547675 230.54772282 C144.70836502 230.54957247 149.32124457 230.55711925 153.93412781 230.56385803 C164.0227467 230.57744431 174.11136161 230.58346624 184.19998813 230.58786869 C190.49640471 230.59063003 196.79281976 230.59486712 203.08923531 230.59937286 C220.51460772 230.6115648 237.9399789 230.62186499 255.36535549 230.62524796 C257.03844221 230.6255773 257.03844221 230.6255773 258.74532867 230.62591331 C260.42245721 230.62624072 260.42245721 230.62624072 262.13346714 230.62657475 C264.39920453 230.62701822 266.66494193 230.62746479 268.93067932 230.62791443 C270.05456753 230.62813586 271.17845574 230.62835729 272.33640117 230.62858543 C290.55869232 230.63253579 308.78094353 230.64999742 327.00321924 230.67327395 C345.70168681 230.69696649 364.40013431 230.70944881 383.09861714 230.71061587 C393.60128362 230.7115337 404.10389804 230.71731315 414.60655022 230.73543549 C423.54717248 230.75080803 432.4877266 230.75597373 441.42835956 230.74769738 C445.99198364 230.74378106 450.55547036 230.74476824 455.11907768 230.75875473 C459.29443126 230.77143465 463.46954343 230.77034852 467.6448964 230.75816402 C469.15764407 230.75619675 470.67040851 230.75933267 472.18313258 230.76800838 C474.23571302 230.77903763 476.28743187 230.77165877 478.33998775 230.75961685 C479.48115738 230.76021394 480.622327 230.76081103 481.79807752 230.76142621 C485.20571201 230.34161546 487.09126307 229.42298598 489.83180237 227.38768005 C491.48726568 224.07675343 490.97437633 220.37934104 490.96983337 216.73937988 C490.97265465 215.83323911 490.97547593 214.92709833 490.97838271 213.99349874 C490.98675607 210.93876746 490.98806928 207.88407229 490.98951721 204.82933044 C490.99418334 202.64673764 490.99932657 200.46414582 491.00491333 198.28155518 C491.0162094 193.57251133 491.0246362 188.86347386 491.03103256 184.15442085 C491.04168945 176.71411894 491.06192715 169.27386288 491.08415222 161.83358765 C491.11470568 151.40671763 491.14393429 140.97984634 491.16969299 130.55296326 C491.17133118 129.89096471 491.17296936 129.22896617 491.17465718 128.54690706 C491.20095249 117.81463433 491.21959007 107.08235816 491.2362849 96.35006685 C491.25369204 85.33797712 491.28271226 74.32595701 491.32117426 63.31392092 C491.34229403 57.1283392 491.35770857 50.94285425 491.35998154 44.75723457 C491.36212092 38.94191436 491.37791743 33.1267957 491.40437126 27.31153679 C491.41159253 25.17294296 491.41365164 23.03432478 491.41026878 20.89572144 C491.40639827 17.98456065 491.42074986 15.07405134 491.43980408 12.16296387 C491.43427438 11.30927611 491.42874469 10.45558835 491.42304742 9.57603127 C491.48858651 3.80749822 491.48858651 3.80749822 493.23454297 1.67186195 C495.27870214 0.02837674 496.40300805 0.01071886 499.00672913 0.00672913 C499.8563472 -0.00173035 500.70596527 -0.01018982 501.58132935 -0.01890564 C502.51025497 -0.01283295 503.4391806 -0.00676025 504.39625549 -0.00050354 C505.37698532 -0.0057605 506.35771515 -0.01101746 507.36816406 -0.01643372 C510.6166212 -0.02965965 513.86459007 -0.02088629 517.11305237 -0.01075745 C519.36602371 -0.01277743 521.61899441 -0.01568823 523.8719635 -0.01945496 C528.59643268 -0.02388183 533.32073184 -0.01743544 538.04518127 -0.00343323 C544.108442 0.0136587 550.17130437 0.00381949 556.23455048 -0.01415062 C560.88759882 -0.02497855 565.54055235 -0.02154664 570.19360352 -0.01376724 C572.42957608 -0.0117625 574.66555718 -0.01423408 576.90151978 -0.0212059 C580.02369573 -0.02880395 583.14522183 -0.01723893 586.26734924 -0.00050354 C587.66073769 -0.00961258 587.66073769 -0.00961258 589.08227539 -0.01890564 C590.3567025 -0.00621643 590.3567025 -0.00621643 591.65687561 0.00672913 C592.39502251 0.0078602 593.1331694 0.00899128 593.89368439 0.01015663 C596.43219685 0.5046301 597.2134598 1.39690671 598.83180237 3.38768005 C599.12640396 6.50498289 599.23381328 9.42231367 599.20932579 12.54102325 C599.21586627 13.97069895 599.21586627 13.97069895 599.22253889 15.42925698 C599.23357047 18.65361692 599.22303636 21.87755595 599.2127533 25.10191345 C599.21620673 27.42462939 599.22096917 29.74734369 599.22693503 32.07005453 C599.2381961 37.80366351 599.23539916 43.53714781 599.22678273 49.2707586 C599.21723986 56.13573105 599.22504744 63.00065535 599.23341847 69.8656254 C599.24923957 83.31706697 599.24783705 96.76846587 599.23918173 110.21991153 C599.23164437 121.99126762 599.22966061 133.76260805 599.23324966 145.53396606 C599.2335934 146.70377353 599.2335934 146.70377353 599.23394407 147.89721347 C599.23487804 151.06271715 599.23583324 154.22822082 599.23682337 157.39372448 C599.24600684 187.10758882 599.23766973 216.82142594 599.22153267 246.53528609 C599.20729514 272.95240726 599.20856899 299.36948505 599.22291565 325.78660583 C599.23896864 355.4450346 599.24535563 385.1034393 599.23607886 414.76187181 C599.23511666 417.92171255 599.23417814 421.0815533 599.23324966 424.24139404 C599.23289382 425.40850197 599.23289382 425.40850197 599.23253078 426.59918783 C599.22911385 438.36509218 599.23311757 450.13097916 599.24068832 461.8968811 C599.24925084 475.27104194 599.24715431 488.64515332 599.23084609 502.01930797 C599.2227936 508.84892616 599.21953005 515.67846388 599.22979355 522.50808144 C599.23868667 528.75150765 599.23389703 534.99476321 599.21786089 541.23817378 C599.21449014 543.50528093 599.21625807 545.77240229 599.22348826 548.03950042 C599.23251904 551.10465529 599.22334812 554.16921394 599.20932579 557.23433685 C599.21634929 558.12884475 599.22337279 559.02335265 599.23060912 559.94496685 C599.17498956 565.96555757 599.17498956 565.96555757 597.42943177 568.11260501 C595.38577642 569.74365532 594.25317837 569.76681337 591.65687561 569.77536011 C590.3824485 569.79021706 590.3824485 569.79021706 589.08227539 569.80537415 C588.15334976 569.8008725 587.22442413 569.79637085 586.26734924 569.79173279 C584.7962545 569.80202766 584.7962545 569.80202766 583.29544067 569.81253052 C580.04699817 569.83086278 576.7990356 569.82695213 573.55055237 569.8212738 C571.29758038 569.82583221 569.04460979 569.83113676 566.79164124 569.8371582 C562.06717789 569.84610173 557.34288347 569.84365164 552.61842346 569.83372498 C546.55508099 569.82222846 540.49232028 569.84245139 534.42905426 569.87164211 C529.77599872 569.88996032 525.12308375 569.88972048 520.47000122 569.88400459 C518.23402083 569.88385087 515.9980312 569.88993701 513.76208496 569.90229607 C510.63976695 569.91712296 507.51853868 569.90659015 504.39625549 569.88938904 C503.46732986 569.89905701 502.53840424 569.90872498 501.58132935 569.91868591 C500.73171127 569.90885178 499.8820932 569.89901764 499.00672913 569.8888855 C498.26858223 569.88867621 497.53043533 569.88846693 496.76992035 569.8882513 C494.83180237 569.38768005 494.83180237 569.38768005 493.09410763 567.90911198 C491.23778085 564.20113283 491.42365884 560.59843713 491.45999146 556.54356384 C491.45616689 555.64050333 491.45234233 554.73744283 491.44840187 553.80701685 C491.43910013 550.77450358 491.45111883 547.74244487 491.46290588 544.70994568 C491.4604386 542.5385316 491.45660092 540.3671187 491.45149231 538.19570923 C491.4431462 533.51667317 491.44396875 528.83775877 491.45167732 524.15872192 C491.46323963 516.76415858 491.45111545 509.36975247 491.43505859 501.97520447 C491.39883072 483.60894478 491.39253686 465.24267909 491.39515686 446.87638855 C491.3968661 432.60341634 491.38980506 418.33057206 491.3551783 404.05763578 C491.33834426 396.70264413 491.34021335 389.34796392 491.35600102 381.99297333 C491.36178274 377.42247579 491.35108534 372.85212713 491.33575439 368.28165627 C491.33201645 366.15798325 491.33516981 364.03428556 491.34562492 361.91063499 C491.35892312 359.0173096 491.34784829 356.12507682 491.33059692 353.23179626 C491.3404037 352.38627654 491.35021048 351.54075681 491.36031443 350.66961527 C491.31819863 347.26731518 491.25389421 344.96179273 489.20369101 342.1731872 C486.09464617 339.8327646 484.25470198 339.88746798 480.38215542 339.8871088 C479.73348008 339.88159464 479.08480475 339.87608047 478.41647258 339.87039921 C476.23352317 339.85675728 474.05170331 339.87172491 471.86877441 339.88647461 C470.29178142 339.8825834 468.71479194 339.8769444 467.13781077 339.86970371 C462.79711463 339.85490523 458.45677963 339.86515617 454.11609495 339.87944043 C449.43779079 339.89052138 444.7595385 339.87861722 440.08123779 339.86959839 C430.91388693 339.85564458 421.74667353 339.86323773 412.57932919 339.87827397 C401.91125985 339.8951078 391.24322501 339.89192717 380.5751465 339.88817989 C361.54568038 339.88229746 342.51628037 339.89648828 323.48683167 339.92112732 C305.00666323 339.94505258 286.52658312 339.95213075 268.04640198 339.94163513 C247.93824598 339.93023544 227.83013087 339.92828385 207.72197539 339.94273323 C205.5793858 339.94425912 203.43679621 339.94577948 201.29420662 339.94729424 C200.23991858 339.94805205 199.18563055 339.94880986 198.09939439 339.94959064 C190.65678144 339.95434055 183.2141867 339.95247706 175.77157402 339.94822884 C166.70681289 339.94331098 157.6421354 339.94924718 148.57739346 339.96912313 C143.9492198 339.97901991 139.32117371 339.98407463 134.69299316 339.97623062 C130.46098119 339.96920459 126.22922734 339.9759057 121.99724955 339.99383425 C120.4616646 339.99789882 118.92605636 339.9968455 117.39047991 339.99031539 C115.31187581 339.98222871 113.23415498 339.99239804 111.15560818 340.00736332 C109.9984903 340.00839245 108.84137242 340.00942158 107.64919037 340.01048189 C104.84714868 340.16966181 104.84714868 340.16966181 102.95991373 341.67353636 C100.91869174 344.77513423 101.42787014 348.51048067 101.45999146 352.10481262 C101.45616689 353.00631314 101.45234233 353.90781366 101.44840187 354.83663237 C101.43908549 357.86991709 101.45112804 360.90274911 101.46290588 363.9360199 C101.46043907 366.10566396 101.45660187 368.27530684 101.45149231 370.44494629 C101.44314068 375.12345209 101.44397346 379.80183625 101.45167732 384.48034286 C101.46323373 391.87510082 101.45111996 399.26970138 101.43505859 406.66444397 C101.39881859 425.03362313 101.39253551 443.4028084 101.39515686 461.77201843 C101.39686648 476.04238874 101.38978994 490.31263109 101.3551783 504.58296549 C101.33835109 511.93684223 101.34020786 519.29040741 101.35600102 526.64428306 C101.36178694 531.2170147 101.35107749 535.78959777 101.33575439 540.36230278 C101.33201952 542.48555491 101.33516104 544.60883175 101.34562492 546.73206139 C101.35894435 549.62727853 101.3478298 552.5214074 101.33059692 555.4165802 C101.3404037 556.25986921 101.35021048 557.10315821 101.36031443 557.97200143 C101.31202634 561.88604655 101.08171752 563.95924887 99.06907654 567.40953255 C96.61347141 569.58072338 95.75005913 570.01224572 92.53662109 570.00914001 C91.26013199 570.02595322 91.26013199 570.02595322 89.95785522 570.04310608 C89.03252487 570.02984283 88.10719452 570.01657959 87.15382385 570.00291443 C86.172948 570.00846344 85.19207214 570.01401245 84.18147278 570.01972961 C80.93811755 570.03154396 77.6961537 570.00723342 74.45289612 569.98143005 C72.20135563 569.97971952 69.94981315 569.97978405 67.69827271 569.98155212 C62.97964934 569.97989791 58.26150051 569.96117916 53.54298401 569.92967224 C47.48756479 569.88997192 41.43276676 569.88562903 35.37724209 569.89313507 C30.72845749 569.89620087 26.07981318 569.88409847 21.4310627 569.86700439 C19.19789065 569.859962 16.96470269 569.85685136 14.7315197 569.85769653 C11.61418144 569.85590369 8.49759503 569.83456618 5.38038635 569.80760193 C4.45303177 569.81053253 3.52567719 569.81346313 2.57022095 569.81648254 C1.72204803 569.80513275 0.87387512 569.79378296 0 569.78208923 C-0.73684808 569.77836052 -1.47369616 569.77463181 -2.23287296 569.7707901 C-4.76630134 569.26928155 -5.55157195 568.37569142 -7.16819763 566.38768005 C-7.46279923 563.27037722 -7.57020854 560.35304644 -7.54572105 557.23433685 C-7.55008138 556.28121973 -7.5544417 555.3281026 -7.55893415 554.34610313 C-7.56996573 551.12174319 -7.55943162 547.89780416 -7.54914856 544.67344666 C-7.552602 542.35073072 -7.55736443 540.02801642 -7.56333029 537.70530558 C-7.57459136 531.9716966 -7.57179442 526.23821229 -7.563178 520.50460151 C-7.55363512 513.63962906 -7.5614427 506.77470476 -7.56981373 499.90973471 C-7.58563483 486.45829314 -7.58423231 473.00689424 -7.575577 459.55544858 C-7.56803963 447.78409248 -7.56605587 436.01275205 -7.56964493 424.24139404 C-7.56987408 423.4615224 -7.57010324 422.68165076 -7.57033934 421.87814664 C-7.57127331 418.71264296 -7.5722285 415.54713929 -7.57321863 412.38163563 C-7.5824021 382.66777128 -7.57406499 352.95393416 -7.55792794 323.24007402 C-7.54369041 296.82295285 -7.54496426 270.40587506 -7.55931091 243.98875427 C-7.5753639 214.3303255 -7.5817509 184.6719208 -7.57247412 155.01348829 C-7.57151192 151.85364756 -7.57057341 148.69380681 -7.56964493 145.53396606 C-7.5694077 144.75589411 -7.56917046 143.97782216 -7.56892604 143.17617228 C-7.56550911 131.41026793 -7.56951284 119.64438095 -7.57708359 107.878479 C-7.5856461 94.50431816 -7.58354957 81.13020678 -7.56724136 67.75605214 C-7.55918887 60.92643394 -7.55592531 54.09689623 -7.56618881 47.26727867 C-7.57508194 41.02385246 -7.57029229 34.7805969 -7.55425616 28.53718632 C-7.5508854 26.27007918 -7.55265333 24.00295782 -7.55988352 21.73585969 C-7.5689143 18.67070482 -7.55974339 15.60614617 -7.54572105 12.54102325 C-7.55274455 11.64651535 -7.55976805 10.75200745 -7.56700438 9.83039325 C-7.51138434 3.80974939 -7.51138434 3.80974939 -5.76565246 1.6627551 C-3.72371267 0.03289588 -2.59417092 0.00855477 0 0 Z " fill="#6CCACB" transform="translate(78.16819763183594,93.61231994628906)"/>
<path d="M0 0 C0.87376356 -0.00436032 1.74752713 -0.00872064 2.64776838 -0.0132131 C5.60220137 -0.02424032 8.55617457 -0.01371269 11.51060486 -0.00342751 C13.63945538 -0.00688112 15.76830412 -0.01164367 17.89714909 -0.01760924 C23.7678395 -0.03018962 29.63838454 -0.02391698 35.50907564 -0.01465058 C41.83225801 -0.00788912 48.1554146 -0.01832685 54.47859192 -0.02659035 C66.15668173 -0.03918735 77.83471232 -0.03805626 89.51280364 -0.02985594 C100.30000907 -0.02231812 111.08719739 -0.02033503 121.87440491 -0.02392387 C122.94647493 -0.02426761 122.94647493 -0.02426761 124.04020292 -0.02461828 C126.94124008 -0.02555225 129.84227722 -0.02650745 132.74331436 -0.02749758 C159.97382467 -0.03668073 187.20430528 -0.02834445 214.43481101 -0.01220688 C238.64327839 0.00203061 262.85169844 0.00075676 287.06016541 -0.01358986 C314.23992229 -0.02964339 341.41965291 -0.03602954 368.59941387 -0.02675307 C371.49525642 -0.02579087 374.39109897 -0.02485235 377.28694153 -0.02392387 C378.00000541 -0.02368664 378.71306928 -0.02344941 379.44774116 -0.02320499 C390.22986218 -0.01978828 401.01196425 -0.02379136 411.79408264 -0.03136253 C424.05018671 -0.03992566 436.30622065 -0.03753729 448.56232095 -0.0215203 C454.82081926 -0.01361209 461.07922127 -0.01058924 467.33771896 -0.02046776 C473.05933158 -0.02936256 478.78075799 -0.02456847 484.50235355 -0.0085351 C486.5796906 -0.00516506 488.65704316 -0.00693072 490.73437035 -0.01416247 C493.54359063 -0.02319706 496.35216096 -0.01401861 499.16134644 0 C500.39000193 -0.01053525 500.39000193 -0.01053525 501.64347875 -0.02128333 C507.09705419 0.03365025 507.09705419 0.03365025 509.55267811 1.77970064 C510.76974008 3.67139188 511.47718665 5.41339987 512.15196228 7.56209373 C512.56026779 8.83826561 512.56026779 8.83826561 512.9768219 10.14021873 C513.26374908 11.06931053 513.55067627 11.99840233 513.84629822 12.95564842 C514.15699249 13.93469139 514.46768677 14.91373436 514.78779602 15.9224453 C515.81125266 19.15466021 516.82139889 22.39085441 517.83067322 25.62752342 C518.89424684 29.01194167 519.96005216 32.39565184 521.02601624 35.77931786 C521.76032526 38.11118285 522.49344298 40.44342329 523.22541809 42.77602196 C525.7651749 50.85301214 528.38346672 58.90131008 531.04161072 66.94002342 C532.09216142 70.14025003 533.14112831 73.34099075 534.18943787 76.54195213 C534.86489521 78.59282724 535.54626166 80.64176595 536.23362732 82.68868065 C537.19106025 85.54345475 538.12638297 88.40461709 539.05723572 91.26814842 C539.48871414 92.52583031 539.48871414 92.52583031 539.9289093 93.80891991 C541.14450808 97.61519455 541.68524176 99.82746636 540.92588806 103.82185936 C539.58067322 106.37752342 539.58067322 106.37752342 536.58067322 108.37752342 C534.1522626 108.57039511 531.8391175 108.64670185 529.41073608 108.63085651 C528.67204241 108.63395379 527.93334874 108.63705106 527.17227042 108.64024219 C524.67738585 108.64825355 522.182738 108.6419427 519.68785095 108.63580894 C517.88898534 108.63866151 516.09012094 108.64239837 514.29125881 108.64694744 C509.33272084 108.65696376 504.37425332 108.65454566 499.41570997 108.65022051 C494.07413356 108.6477512 488.732576 108.65680359 483.39100647 108.66460228 C474.13058656 108.67666396 464.87018387 108.68175608 455.60975647 108.68248367 C442.21734774 108.68380703 428.82498097 108.69889832 415.43258703 108.71797884 C393.70168084 108.74884205 371.97077359 108.77299828 350.23985291 108.7908535 C348.9384283 108.79192618 347.6370037 108.79299886 346.29614198 108.79410405 C331.77237501 108.8059272 317.24860761 108.81613185 302.72483826 108.82454491 C297.45705667 108.8276188 292.18927509 108.83070759 286.92149353 108.83382225 C284.97172499 108.83497026 284.97172499 108.83497026 282.98256719 108.83614146 C261.33479257 108.84920771 239.6870483 108.87382574 218.03929615 108.90756565 C204.67509765 108.92789459 191.310964 108.9381397 177.94674993 108.93557645 C168.79534645 108.93454399 159.64399434 108.94413596 150.49260879 108.96221548 C145.20623492 108.97229379 139.91997464 108.97735305 134.63359451 108.96944809 C129.80016918 108.9623061 124.9669658 108.9687681 120.13356888 108.9863335 C118.37924644 108.99023825 116.62490399 108.98900137 114.87059009 108.98227661 C112.49699127 108.9738952 110.1241621 108.98372695 107.75061035 108.99834919 C107.05985432 108.9915008 106.36909829 108.98465241 105.65741026 108.97759649 C102.83619913 109.01186029 100.99799571 109.08333291 98.65614736 110.73421341 C97.0111228 113.2477888 97.20283012 115.35623482 97.19972229 118.33675194 C97.19126282 119.58183525 97.18280334 120.82691856 97.17408752 122.10973167 C97.17992061 123.49196564 97.18606513 124.87419833 97.19248962 126.25642967 C97.18842515 127.71011818 97.18308397 129.16380359 97.17655945 130.61748314 C97.16286513 134.56787098 97.16819312 138.51802419 97.1776967 142.46841621 C97.18528239 146.59901381 97.17825073 150.72959107 97.17353821 154.86018944 C97.16807746 161.7973193 97.1752806 168.7343534 97.18955994 175.67146873 C97.2058871 183.69621168 97.20059882 191.72072597 97.18408072 199.74546337 C97.1704749 206.63045938 97.16854175 213.51538648 97.17639673 220.40039158 C97.18107824 224.51464334 97.18168503 228.62878757 97.17178726 232.74303246 C97.16313297 236.61068636 97.16911106 240.47804495 97.18647003 244.34566689 C97.19044315 245.76667986 97.18928674 247.1877176 97.18268204 248.60872078 C97.17450986 250.54523658 97.1865652 252.48180656 97.19972229 254.41829491 C97.20085337 255.50303596 97.20198444 256.58777702 97.2031498 257.70538902 C97.36644463 260.34470504 97.36644463 260.34470504 98.75393051 262.0211826 C101.29536949 263.90817929 103.0356621 263.75194615 106.18607998 263.75111103 C107.94697087 263.76159565 107.94697087 263.76159565 109.74343532 263.77229208 C111.03932695 263.76471602 112.33521857 263.75713997 113.67037964 263.74933434 C115.05605395 263.75190764 116.44172633 263.75580741 117.82739359 263.76092392 C121.64390225 263.77122868 125.46018079 263.76287399 129.27667844 263.75162709 C133.38922648 263.74279568 137.50174119 263.75127008 141.61428833 263.75783348 C148.74335766 263.76700175 155.87236267 263.76565234 163.00143242 263.75764847 C173.31329813 263.74643507 183.62507184 263.75544158 193.93692953 263.77021027 C210.67193561 263.79399814 227.40693035 263.80735026 244.14195251 263.81136131 C245.64510374 263.81172862 245.64510374 263.81172862 247.17862166 263.81210334 C258.36042959 263.81464958 269.54223665 263.81521593 280.7240448 263.81416893 C284.77903747 263.81383591 288.83403015 263.81355051 292.88902283 263.81331444 C294.38989392 263.81322026 294.38989392 263.81322026 295.92108565 263.81312417 C312.5911676 263.81251985 329.26119718 263.82737995 345.93125731 263.85414749 C356.21993914 263.86997785 366.50845226 263.87218427 376.79713596 263.85701347 C383.84421433 263.84756816 390.89119079 263.85227308 397.93825715 263.8682273 C402.00762863 263.87694714 406.07672965 263.87900124 410.14608765 263.86370087 C413.86878392 263.8498152 417.59098942 263.85416289 421.31365866 263.87322188 C423.30383753 263.87856732 425.29403884 263.86409781 427.28416771 263.84901136 C429.04897022 263.8634076 429.04897022 263.8634076 430.84942532 263.87809467 C431.86696846 263.87798734 432.88451161 263.87788 433.9328894 263.87776941 C437.32694269 264.51837751 438.53187471 265.6350648 440.58067322 268.37752342 C440.71343726 277.02921918 437.28572371 285.39887694 434.66270447 293.55721092 C434.16210608 295.13527566 433.66225773 296.71357849 433.16311646 298.29210472 C431.84940786 302.43979879 430.52572035 306.58424009 429.19981384 310.72804832 C427.8722667 314.88276059 426.55389921 319.04038146 425.23497009 323.19783592 C423.7128011 327.99486794 422.18891624 332.79131596 420.65541077 337.58473778 C418.60690033 343.98936658 416.56201856 350.39298425 414.60948181 356.82771873 C414.19650093 358.17931587 414.19650093 358.17931587 413.775177 359.558218 C413.30065819 361.11946777 412.83345994 362.68297501 412.3760376 364.24931908 C411.31562649 367.72602159 410.5038023 370.15522962 407.58067322 372.37752342 C405.25816214 372.75307894 405.25816214 372.75307894 402.46219826 372.75390434 C401.39687296 372.76151079 400.33154765 372.76911723 399.23393977 372.77695417 C398.05934966 372.77006024 396.88475955 372.7631663 395.67457581 372.75606346 C394.43005689 372.76059359 393.18553797 372.76512372 391.90330637 372.76979113 C388.44208841 372.77943054 384.98134803 372.775621 381.52015972 372.76628613 C377.79000228 372.75950516 374.05989057 372.77001444 370.32974243 372.77857018 C363.86366007 372.79115213 357.39764457 372.79310439 350.93155289 372.78821373 C341.57717103 372.78141541 332.2228903 372.79390587 322.8685265 372.81172091 C307.68534025 372.8403892 292.5021649 372.85788864 277.31895447 372.86629295 C276.40982502 372.86680013 275.50069557 372.86730731 274.56401674 372.86782986 C268.11123571 372.87135687 261.6584545 372.87448609 255.20567322 372.87752342 C247.83816004 372.88099182 240.47064701 372.88464101 233.10313416 372.88875389 C232.19571569 372.88925651 231.28829723 372.88975912 230.35338123 372.89027697 C215.23028526 372.89901697 200.10722678 372.91944569 184.98415601 372.94823599 C175.65210182 372.96543171 166.32015358 372.97199377 156.98808561 372.96492994 C150.59464766 372.96075509 144.20127657 372.96708587 137.80785419 372.98172867 C134.11712273 372.98979844 130.42655698 372.9928781 126.73582649 372.98290634 C122.73732575 372.97219308 118.73922645 372.98446502 114.74073792 372.99898338 C112.98554492 372.98864248 112.98554492 372.98864248 111.19489348 372.97809267 C110.12435268 372.98569911 109.05381189 372.99330556 107.95083046 373.0011425 C107.02783767 373.00141489 106.10484489 373.00168727 105.15388262 373.00196791 C101.99264195 373.46334558 100.11160254 374.44385749 97.58067322 376.37752342 C97.07167538 379.08382021 96.91399329 381.17568686 96.96162415 383.88654137 C96.95226568 385.04383998 96.95226568 385.04383998 96.94271815 386.22451836 C96.92775717 388.81827323 96.94847254 391.41053213 96.96885681 394.00423241 C96.96531717 395.86023557 96.95954139 397.71623563 96.95169067 399.57222557 C96.93949267 403.57312382 96.94300104 407.57359606 96.9585228 411.57448196 C96.9827812 417.8978732 96.97136849 424.22088915 96.95484924 430.54428673 C96.93032893 441.68410492 96.93616436 452.82375339 96.94865417 463.96358299 C96.96722381 480.73439129 96.96243434 497.5051675 96.92861998 514.27595192 C96.91708653 520.56466589 96.92157153 526.8531085 96.93864036 533.14180744 C96.94652505 537.0512654 96.94229506 540.96064396 96.9349308 544.87010002 C96.93411893 546.68577983 96.93849085 548.50147032 96.94837379 550.31712341 C96.96119598 552.79215377 96.95574037 555.266494 96.945755 557.74152184 C96.95401318 558.46321334 96.96227135 559.18490484 96.97077978 559.92846578 C96.94178565 562.95149311 96.7147852 565.11708301 95.32116127 567.82344818 C93.17998336 569.73529789 92.21146715 569.87793058 89.36778259 569.87872887 C88.50975037 569.888563 87.65171814 569.89839714 86.76768494 569.90852928 C85.36027039 569.89402733 85.36027039 569.89402733 83.92442322 569.87923241 C82.93393982 569.88463539 81.94345642 569.89003838 80.92295837 569.89560509 C77.64189469 569.90813428 74.36170129 569.89157305 71.08067322 569.87361717 C68.80528212 569.87377206 66.52989076 569.87525937 64.25450134 569.87802696 C59.48289851 569.87941284 54.71159557 569.86682106 49.94004822 569.84407616 C43.81623711 569.81569127 37.69292453 569.81842648 31.56907654 569.83116627 C26.86969222 569.83811315 22.17042362 569.83034545 17.47105408 569.81790924 C15.21275781 569.81338512 12.95444915 569.81306629 10.69615173 569.81697464 C7.54281545 569.81987711 4.39017207 569.80342563 1.23692322 569.78157616 C0.29864685 569.7860778 -0.63962952 569.79057945 -1.6063385 569.79521751 C-2.46437073 569.78531288 -3.32240295 569.77540825 -4.20643616 569.76520348 C-4.9519574 569.76277358 -5.69747864 569.76034369 -6.46559143 569.75784016 C-9.01488474 569.26159132 -9.79475176 568.37715306 -11.41932678 566.37752342 C-11.71392838 563.26022059 -11.82133769 560.34288981 -11.7968502 557.22418022 C-11.80121053 556.27106309 -11.80557085 555.31794597 -11.8100633 554.3359465 C-11.82109488 551.11158655 -11.81056078 547.88764753 -11.80027771 544.66329002 C-11.80373115 542.34057409 -11.80849358 540.01785979 -11.81445944 537.69514894 C-11.82572051 531.96153997 -11.82292358 526.22805566 -11.81430715 520.49444488 C-11.80476427 513.62947242 -11.81257186 506.76454813 -11.82094288 499.89957808 C-11.83676398 486.44813651 -11.83536146 472.9967376 -11.82670615 459.54529195 C-11.81916878 447.77393585 -11.81718502 436.00259542 -11.82077408 424.23123741 C-11.82100323 423.45136577 -11.82123239 422.67149412 -11.82146849 421.86799001 C-11.82240246 418.70248633 -11.82335765 415.53698266 -11.82434778 412.371479 C-11.83353125 382.65761465 -11.82519414 352.94377753 -11.80905709 323.22991738 C-11.79481956 296.81279622 -11.79609341 270.39571843 -11.81044006 243.97859764 C-11.82649305 214.32016887 -11.83288005 184.66176417 -11.82360327 155.00333166 C-11.82264107 151.84349092 -11.82170256 148.68365018 -11.82077408 145.52380943 C-11.82053685 144.74573748 -11.82029961 143.96766553 -11.82005519 143.16601564 C-11.81663826 131.4001113 -11.82064199 119.63422431 -11.82821274 107.86832237 C-11.83677525 94.49416153 -11.83467873 81.12005015 -11.81837051 67.7458955 C-11.81031802 60.91627731 -11.80705446 54.0867396 -11.81731796 47.25712204 C-11.82621109 41.01369582 -11.82142144 34.77044027 -11.80538531 28.52702969 C-11.80201455 26.25992255 -11.80378248 23.99280118 -11.81101267 21.72570306 C-11.82004345 18.66054819 -11.81087254 15.59598954 -11.7968502 12.53086662 C-11.8038737 11.63635872 -11.8108972 10.74185082 -11.81813353 9.82023662 C-11.76284648 3.8356383 -11.76284648 3.8356383 -10.12568323 1.65233164 C-7.16158916 -0.56212448 -3.55857079 -0.03051337 0 0 Z " fill="#6CCACB" transform="translate(4077.4193267822266,93.62247657775879)"/>
<path d="M0 0 C1.28704834 -0.01485695 1.28704834 -0.01485695 2.60009766 -0.03001404 C4.00751221 -0.02326157 4.00751221 -0.02326157 5.44335938 -0.01637268 C6.43384277 -0.02323593 7.42432617 -0.03009918 8.44482422 -0.03717041 C11.72573088 -0.0555034 15.00616238 -0.05159191 18.28710938 -0.0459137 C20.56250159 -0.05047207 22.83789243 -0.0557766 25.11328125 -0.0617981 C29.88482248 -0.07074177 34.65619645 -0.06829137 39.42773438 -0.05836487 C45.55160884 -0.04686836 51.67490729 -0.06709122 57.79870605 -0.09628201 C62.49808436 -0.11459988 67.19732348 -0.11436044 71.89672852 -0.10864449 C74.15503752 -0.10849076 76.41335566 -0.11457724 78.67163086 -0.12693596 C81.82507823 -0.1417622 84.97744651 -0.13123047 88.13085938 -0.11402893 C89.53827393 -0.12853088 89.53827393 -0.12853088 90.97412109 -0.14332581 C92.26116943 -0.1285746 92.26116943 -0.1285746 93.57421875 -0.11352539 C94.31973999 -0.11331611 95.06526123 -0.11310682 95.83337402 -0.1128912 C97.78710938 0.38768005 97.78710938 0.38768005 99.38569403 1.94656074 C101.28545744 5.25575039 101.20049758 8.23516534 101.1634903 11.94616032 C101.16774141 12.71471018 101.17199253 13.48326005 101.17637247 14.27509931 C101.18703048 16.86562484 101.17622855 19.45562295 101.16564941 22.04614258 C101.1689384 23.91599399 101.17355074 25.78584347 101.17937708 27.6556887 C101.19162813 32.80582702 101.18520453 37.9558015 101.17587209 43.10593975 C101.16909329 48.65541159 101.17959915 54.20485265 101.18815613 59.75431824 C101.20073921 69.37377757 101.20269003 78.99319195 101.19779968 88.61265755 C101.19100396 102.52415262 101.20348684 116.43557966 101.22130686 130.34706258 C101.24997513 152.92041446 101.26751226 175.49375669 101.27587891 198.06712341 C101.27613281 198.74276333 101.27638672 199.41840325 101.27664832 200.1145171 C101.28075621 211.07970718 101.28429397 222.04489743 101.28776062 233.01008773 C101.29101548 243.28626119 101.29447891 253.56243454 101.29833984 263.83860779 C101.29859013 264.51403982 101.29884042 265.18947185 101.29909829 265.88537153 C101.30776069 289.05565094 101.328138 312.2259039 101.35782194 335.39616722 C101.37503576 349.2786586 101.38157165 363.16107867 101.37451589 377.04357933 C101.37034766 386.54911945 101.37665034 396.05461451 101.39131463 405.56014413 C101.39940092 411.05107849 101.40243632 416.54190123 101.39249229 422.03283501 C101.38347614 427.0531051 101.38804725 432.07316701 101.40370673 437.09341907 C101.40691398 438.91568103 101.40497318 440.73796031 101.39754134 442.56020994 C101.38819878 445.02541053 101.39706694 447.48987673 101.41072845 449.95504093 C101.40359422 450.67278499 101.39645998 451.39052904 101.38910955 452.13002291 C101.41969398 454.83496512 101.53738576 456.93282033 102.85275126 459.32869619 C105.83676087 460.96232235 108.79856662 460.79751817 112.11322021 460.76406097 C112.86879762 460.76831209 113.62437503 460.77256321 114.40284872 460.77694315 C116.95526889 460.78761984 119.50715594 460.77679014 122.05957031 460.76622009 C123.89968511 460.76950836 125.73979795 460.77412019 127.57990646 460.77994776 C132.65249388 460.79220902 137.72491515 460.78577048 142.79750252 460.77644277 C148.26178346 460.76966816 153.72603303 460.78016769 159.19030762 460.78872681 C168.66354662 460.80131398 178.13673998 460.80325931 187.60998535 460.79837036 C201.31009322 460.79157654 215.01013196 460.80405421 228.71022749 460.82187754 C250.94027797 460.85055056 273.17032417 460.86808413 295.40039062 460.87644958 C296.06584953 460.87670349 296.73130844 460.8769574 297.41693276 460.877219 C307.54032485 460.88106955 317.66371708 460.88443019 327.78710938 460.88768005 C338.5826824 460.8911457 349.37825533 460.89479146 360.17382812 460.89891052 C361.17148588 460.89928595 361.17148588 460.89928595 362.18929833 460.89966897 C385.00559826 460.90833148 407.82187431 460.92870947 430.63815689 460.95839262 C444.30945461 460.97560703 457.98067993 460.98214206 471.65198708 460.97508657 C481.01363409 460.97091821 490.37523536 460.97722144 499.73687172 460.9918853 C505.14476377 460.99997146 510.5525425 461.00300726 515.96043396 460.99306297 C520.90487777 460.98404642 525.84911021 460.98861856 530.79353571 461.00427741 C532.58823687 461.00748452 534.38295562 461.00554418 536.17764425 460.99811202 C538.60568982 460.98876862 541.0329899 460.99763839 543.46099854 461.01129913 C544.16779802 461.0041649 544.8745975 460.99703066 545.60281515 460.98968023 C548.44176362 461.02226625 550.35737727 461.0981663 552.74657822 462.70778894 C554.23540787 465.11143797 553.85616023 467.08519778 553.3972168 469.79255676 C552.00108187 475.73108846 550.07161379 481.51428683 548.19335938 487.3134613 C547.72253419 488.7841602 547.25229064 490.25504542 546.78259277 491.72610474 C545.54296413 495.60245588 544.29463662 499.47595352 543.04467773 503.34898376 C542.05176514 506.43059664 541.0651605 509.51420971 540.07887268 512.59794807 C535.33165877 527.43962174 530.53145382 542.26386344 525.63085938 557.0556488 C525.25433228 558.19754166 524.87780518 559.33943451 524.48986816 560.51593018 C524.14645386 561.54634933 523.80303955 562.57676849 523.44921875 563.63841248 C523.15059937 564.53718613 522.85197998 565.43595978 522.54431152 566.36196899 C521.78710938 568.38768005 521.78710938 568.38768005 520.78710938 569.38768005 C518.00780474 569.48942176 515.25321827 569.52497211 512.47332191 569.51910782 C511.14334506 569.52218677 511.14334506 569.52218677 509.78649998 569.52532792 C506.77632377 569.53104149 503.76619269 569.52953535 500.75601196 569.52812195 C498.59176625 569.53070309 496.42752102 569.53371554 494.26327646 569.53712535 C488.28549902 569.54522805 482.30773357 569.54698673 476.32995129 569.54772282 C469.89494692 569.5495677 463.45994886 569.55711212 457.02494812 569.56385803 C442.20561303 569.57844474 427.38627921 569.58397077 412.56693824 569.58854998 C405.24876658 569.59088359 397.9305957 569.59448596 390.61242465 569.59824535 C365.57692226 569.6110824 340.5414203 569.62180178 315.50591469 569.62524796 C313.93348428 569.62546959 312.36105388 569.62569137 310.78862347 569.62591331 C309.2123273 569.62613395 307.63603112 569.62635443 306.05973494 569.62657475 C302.89724517 569.62701732 299.7347554 569.62746443 296.57226562 569.62791443 C295.78814837 569.62802382 295.00403112 569.62813321 294.19615274 569.62824592 C268.76034205 569.63187807 243.32455983 569.64780331 217.88876005 569.67110479 C191.01617379 569.69567764 164.14360381 569.7094196 137.27100599 569.71061587 C134.32345605 569.71078734 131.37590611 569.71100277 128.42835617 569.71125031 C127.70255094 569.71130607 126.9767457 569.71136184 126.22894637 569.7114193 C114.52763087 569.71257194 102.82634449 569.7236119 91.12503883 569.73813736 C79.37300109 569.75247401 67.62100405 569.75550204 55.86895992 569.74769738 C49.49705612 569.7437748 43.12525071 569.74479842 36.75335884 569.75875473 C30.92805254 569.77139775 25.10291953 569.77038146 19.2776138 569.75816402 C17.16252865 569.75619024 15.04743162 569.75936191 12.93236323 569.76800838 C10.07222022 569.77896675 7.21270345 569.77170971 4.35257912 569.75961685 C3.51846465 569.76721205 2.68435018 569.77480724 1.82495952 569.78263259 C-3.75200067 569.73121411 -3.75200067 569.73121411 -5.92299767 568.11301567 C-8.25581629 564.99268307 -7.61987161 560.98603153 -7.59041405 557.23433685 C-7.59477437 556.28121973 -7.59913469 555.3281026 -7.60362715 554.34610313 C-7.61465873 551.12174319 -7.60412462 547.89780416 -7.59384155 544.67344666 C-7.59729499 542.35073072 -7.60205743 540.02801642 -7.60802329 537.70530558 C-7.61928435 531.9716966 -7.61648742 526.23821229 -7.60787099 520.50460151 C-7.59832811 513.63962906 -7.6061357 506.77470476 -7.61450673 499.90973471 C-7.63032782 486.45829314 -7.6289253 473.00689424 -7.62026999 459.55544858 C-7.61273263 447.78409248 -7.61074887 436.01275205 -7.61433792 424.24139404 C-7.61456708 423.4615224 -7.61479623 422.68165076 -7.61503233 421.87814664 C-7.6159663 418.71264296 -7.61692149 415.54713929 -7.61791162 412.38163563 C-7.6270951 382.66777128 -7.61875799 352.95393416 -7.60262093 323.24007402 C-7.5883834 296.82295285 -7.58965725 270.40587506 -7.60400391 243.98875427 C-7.6200569 214.3303255 -7.62644389 184.6719208 -7.61716712 155.01348829 C-7.61620492 151.85364756 -7.6152664 148.69380681 -7.61433792 145.53396606 C-7.61410069 144.75589411 -7.61386346 143.97782216 -7.61361904 143.17617228 C-7.61020211 131.41026793 -7.61420583 119.64438095 -7.62177658 107.878479 C-7.63033909 94.50431816 -7.62824257 81.13020678 -7.61193435 67.75605214 C-7.60388186 60.92643394 -7.60061831 54.09689623 -7.61088181 47.26727867 C-7.61977493 41.02385246 -7.61498529 34.7805969 -7.59894915 28.53718632 C-7.59557839 26.27007918 -7.59734632 24.00295782 -7.60457651 21.73585969 C-7.6136073 18.67070482 -7.60443638 15.60614617 -7.59041405 12.54102325 C-7.59743755 11.64651535 -7.60446104 10.75200745 -7.61169738 9.83039325 C-7.55608057 3.81009993 -7.55608057 3.81009993 -5.81149612 1.6627551 C-3.75814914 0.02497048 -2.60834568 0.00850144 0 0 Z " fill="#6CCACB" transform="translate(2412.212890625,93.61231994628906)"/>
<path d="M0 0 C0.87493103 -0.00708481 1.74986206 -0.01416962 2.65130615 -0.02146912 C3.61345032 -0.0189917 4.57559448 -0.01651428 5.56689453 -0.01396179 C6.57834534 -0.01907272 7.58979614 -0.02418365 8.63189697 -0.02944946 C11.98789321 -0.04339281 15.34368521 -0.04238527 18.69970703 -0.04008484 C21.02376381 -0.04396886 23.34781987 -0.04830292 25.671875 -0.05307007 C30.54771219 -0.06054228 35.42347699 -0.06023353 40.29931641 -0.05497742 C46.56109903 -0.04917834 52.82258631 -0.06611974 59.08432007 -0.08932209 C63.88486476 -0.10402148 68.68533767 -0.10493637 73.48590088 -0.10181236 C75.7952737 -0.10232738 78.10465035 -0.10759876 80.41400146 -0.11762428 C83.63703874 -0.1298993 86.85949227 -0.12325103 90.08251953 -0.11161804 C91.52573578 -0.12308365 91.52573578 -0.12308365 92.99810791 -0.13478088 C93.87303894 -0.12776657 94.74796997 -0.12075226 95.64941406 -0.11352539 C96.79314987 -0.113777 96.79314987 -0.113777 97.95999146 -0.1140337 C99.82470703 0.26069641 99.82470703 0.26069641 101.82470703 3.26069641 C102.01883123 6.34186059 102.09252041 9.33237116 102.07638931 12.41403961 C102.07929619 13.36715674 102.08220308 14.32027387 102.08519804 15.30227333 C102.09255225 18.52655488 102.08552953 21.75064935 102.07867432 24.97492981 C102.08097661 27.2976445 102.08415156 29.62035846 102.08812881 31.94307089 C102.09563615 37.67665711 102.09377154 43.41018793 102.08802728 49.14377495 C102.08166536 56.00873805 102.08687042 62.87367973 102.0924511 69.73864175 C102.10299849 83.19007618 102.10206348 96.64149164 102.09629327 110.09292789 C102.09126837 121.86428144 102.08994586 133.63562802 102.09233856 145.40698242 C102.09249133 146.18685407 102.0926441 146.96672571 102.0928015 147.77022983 C102.09342415 150.9357335 102.09406094 154.10123717 102.09472103 157.26674083 C102.10084334 186.98059936 102.09528527 216.69444579 102.08452724 246.40830245 C102.07503555 272.82541551 102.07588478 299.2425093 102.08544922 325.65962219 C102.09615121 355.3180472 102.10040921 384.9764615 102.09422469 414.63488817 C102.09358323 417.79472891 102.09295755 420.95456966 102.09233856 424.1144104 C102.09218041 424.89248235 102.09202225 425.6705543 102.09185931 426.47220419 C102.08958135 438.23810487 102.0922505 450.00399784 102.09729767 461.76989746 C102.10300601 475.14404799 102.10160832 488.51817655 102.09073618 501.89232433 C102.08536787 508.7219275 102.08319217 515.5514949 102.09003448 522.38109779 C102.0959632 528.62448951 102.09277009 534.86780537 102.08207938 541.11119014 C102.07983221 543.37829825 102.08101082 545.64541267 102.08583096 547.91251677 C102.09185125 550.97755532 102.08573723 554.04232887 102.07638931 557.10735321 C102.08107165 558.00186111 102.08575398 558.89636901 102.0905782 559.81798321 C102.05300781 565.91824524 102.05300781 565.91824524 99.82470703 569.26069641 C97.95999146 569.63542652 97.95999146 569.63542652 95.64941406 569.63491821 C94.77448303 569.64193253 93.899552 569.64894684 92.99810791 569.65617371 C92.03596375 569.64852997 91.07381958 569.64088623 90.08251953 569.63301086 C88.56534332 569.63848686 88.56534332 569.63848686 87.01751709 569.64407349 C83.66141162 569.65220473 80.30578508 569.63854731 76.94970703 569.62397766 C74.62565104 569.62345936 72.30159461 569.62397588 69.97753906 569.62548828 C65.10165888 569.62539844 60.22594364 569.61494511 55.35009766 569.59687805 C49.08835929 569.57419059 42.82686214 569.57364557 36.56509399 569.5803957 C31.76454511 569.58373123 26.96405159 569.57711343 22.16351318 569.56726646 C19.85414927 569.563407 17.5447792 569.56226932 15.2354126 569.56385231 C12.01245306 569.56422163 8.78980713 569.55164022 5.56689453 569.53535461 C4.60475037 569.53783203 3.6426062 569.54030945 2.65130615 569.54286194 C1.77637512 569.53577713 0.90144409 569.52869232 0 569.52139282 C-0.76249054 569.51933995 -1.52498108 569.51728708 -2.31057739 569.515172 C-4.17529297 569.26069641 -4.17529297 569.26069641 -6.17529297 567.26069641 C-6.3730095 564.20944374 -6.44284515 561.24888946 -6.42697525 558.19637299 C-6.43133557 556.76291354 -6.43133557 556.76291354 -6.43578398 555.30049533 C-6.44314914 552.06162156 -6.43611048 548.82293341 -6.42926025 545.58406067 C-6.43156211 543.25324674 -6.43473678 540.92243354 -6.43871474 538.59162188 C-6.44622703 532.83415391 -6.44435463 527.07674109 -6.43861321 521.31927232 C-6.432255 514.42657927 -6.43745462 507.53390758 -6.44303704 500.64121561 C-6.45358778 487.1352041 -6.45264809 473.62921146 -6.44687921 460.12319814 C-6.44185544 448.3041251 -6.44053126 436.48505899 -6.4429245 424.66598511 C-6.44307727 423.88312691 -6.44323004 423.1002687 -6.44338744 422.29368753 C-6.44401008 419.1161074 -6.44464687 415.93852728 -6.44530697 412.76094717 C-6.45143007 382.93022443 -6.44586996 353.09951375 -6.43511317 323.26879288 C-6.4256214 296.74444046 -6.42647063 270.22010725 -6.43603516 243.695755 C-6.44673581 213.92088447 -6.45099589 184.14602459 -6.44481063 154.3711524 C-6.44416916 151.19923751 -6.44354348 148.02732261 -6.4429245 144.85540771 C-6.44276634 144.07435554 -6.44260819 143.29330337 -6.44244524 142.48858294 C-6.44016674 130.67462652 -6.44283746 118.86067777 -6.44788361 107.04672241 C-6.45359044 93.61872031 -6.4521975 80.19074009 -6.44132212 66.76274073 C-6.43595172 59.90491473 -6.43378172 53.04712436 -6.44062042 46.18929863 C-6.44654507 39.92124713 -6.4433629 33.65327123 -6.43266532 27.38522667 C-6.43041639 25.10801231 -6.43160059 22.83079167 -6.43641689 20.5535813 C-6.44242813 17.47730109 -6.43633269 14.40128579 -6.42697525 11.32501984 C-6.43165758 10.42439038 -6.43633991 9.52376093 -6.44116414 8.59583968 C-6.40531308 2.76847224 -6.23844908 0.01679591 0 0 Z " fill="#6CCACB" transform="translate(3078.17529296875,93.73930358886719)"/>
</svg>
